<svg width="1552" height="1419" viewBox="0 0 1552 1419" fill="none" xmlns="http://www.w3.org/2000/svg">
<g filter="url(#filter0_i_950:5)">
<ellipse cx="499" cy="497" rx="499" ry="497" fill="url(#paint0_linear_950:5)"/>
</g>
<path d="M409.702 1284.51C409.702 1284.51 281.794 1323.38 281.794 1418.25H537.61C537.61 1418.25 545.995 1295.33 409.702 1284.51Z" fill="#FFDF4D"/>
<path d="M98 1269.55C98 1269.55 149.949 1418.51 316.516 1324.01C316.516 1324 257.413 1173.26 98 1269.55Z" fill="#FFDF4D"/>
<path d="M710.901 1085.47C710.901 1085.47 727.844 860.559 698.26 912.037C664.926 970.051 710.901 1085.47 710.901 1085.47Z" fill="#FFDF4D"/>
<path d="M693.847 829.128C700.24 824.737 700.24 814.911 693.847 810.52C690.625 808.306 686.369 808.306 683.146 810.52C676.748 814.911 676.748 824.737 683.146 829.128C686.369 831.343 690.625 831.343 693.847 829.128Z" fill="#FFDF4D"/>
<path d="M1543.07 971.721C1500.63 983.518 1475.09 1067.66 1475.09 1067.66C1475.09 1067.66 1580.73 961.25 1543.07 971.721Z" fill="#FFDF4D"/>
<path d="M1368.17 783.906C1368.17 783.906 1351.59 743.743 1323.71 921.194C1319.88 945.57 1408.68 811.19 1368.17 783.906Z" fill="#FFDF4D"/>
<path d="M297.791 1067.67C276.052 1114.89 269.357 1188.57 344.7 1284.51C344.7 1284.51 483.089 1174.3 344.7 1007.15C344.7 1007.15 325.435 1021.24 308.469 1048.04C305.159 1027.47 309.049 988.472 301.158 967.65C290.242 938.84 281.794 971.002 281.794 971.002C312.08 996.454 297.791 1067.67 297.791 1067.67Z" fill="#FFDF4D"/>
<path d="M882.74 1418.63H746.865V1062.72C746.865 1049.66 756.69 1039.08 768.808 1039.08H860.804C872.921 1039.08 882.746 1049.66 882.746 1062.72V1418.63H882.74Z" fill="#FFDF4D"/>
<path d="M922.24 1192.2V981.222H926.345C929.394 981.222 931.896 983.824 932.001 987.114L934.457 1064.81C934.637 1070.47 941.244 1072.82 944.548 1068.4C949.693 1061.52 955.946 1049.39 960.858 1028.26C961.903 1023.77 967.042 1022.13 970.195 1025.28L953.333 1083.21C952.247 1086.94 954.651 1090.79 958.263 1091.11L958.652 1091.15C960.527 1091.32 962.356 1090.48 963.535 1088.89L976.686 1071.26C978.631 1068.65 982.162 1068.22 984.6 1070.28L984.769 1070.42C986.946 1072.27 987.562 1075.53 986.232 1078.15L956.08 1137.33C955.627 1138.21 955.406 1139.21 955.441 1140.22C955.586 1144.91 960.678 1147.36 964.017 1144.34L978.08 1131.61C978.91 1130.86 980.042 1132.02 979.386 1132.95L934.637 1196.7C933.354 1198.53 931.35 1199.62 929.219 1199.64C925.376 1199.67 922.24 1196.33 922.24 1192.2Z" fill="#FFDF4D"/>
<path d="M1034.29 1416.93H1113.98L1133.03 1230.83C1135.71 1204.63 1132.41 1178.13 1123.43 1153.61L1120.07 1144.44C1113.5 1126.52 1097.64 1114.55 1079.77 1114.03C1062.16 1113.52 1045.91 1124.22 1038.31 1141.33L1034.57 1149.75C1023.09 1175.61 1018.18 1204.28 1020.34 1232.85L1034.29 1416.93Z" fill="#FFDF4D"/>
<path d="M993.333 834.845C993.333 834.845 1038.3 1090.04 1072.69 1090.09C1107.09 1090.14 1121.04 937.012 1121.04 937.012C1121.04 937.012 1101.02 978.826 1096.55 958.323C1092.08 937.819 1114.06 866.101 1114.06 866.101C1114.06 866.101 1120.2 838.535 1112.46 837.115C1104.72 835.702 1096.36 858.814 1095.8 867.683C1095.25 876.546 1094.75 940.008 1071.3 917.641C1053.18 900.359 1057.92 837.128 1061.01 809.275C1061.74 802.607 1062.91 796.002 1064.59 789.534C1068 776.393 1072.78 747.458 1049.54 745.125C1029.44 743.104 1034.27 766.71 1039.71 782.648C1044.56 796.827 1047.17 811.789 1047.37 826.901C1047.69 851.37 1044.13 879.811 1024.1 867.039C1024.1 867.039 1009.27 853.122 1014.34 830.798C1019.42 808.474 1003.62 800.293 993.345 812.046C993.333 812.033 990.964 822.085 993.333 834.845Z" fill="#FFDF4D"/>
<path d="M1201.61 1418.63C1213.31 1368.68 1285.25 1052.75 1300.65 774.873H1257.31H1218.96H1183.21C1183.21 774.873 1154.57 1348.2 1139.54 1418.63H1201.61Z" fill="#FFDF4D"/>
<path d="M1351.18 1418.25L1400.14 1145.83C1400.14 1145.83 1400.1 1145.69 1400.02 1145.42C1400.06 1145.2 1400.1 1145.01 1400.14 1144.79C1404.21 1120.07 1393.33 1102.84 1380.8 1091.54L1400.01 989.191C1405.47 987.646 1409.96 982.823 1411 976.337C1412.36 967.887 1407.02 959.83 1399.29 957.804L1376.86 951.931C1368.63 949.773 1361.9 955.477 1361.9 964.603C1360.74 969.738 1362.04 974.911 1364.96 978.708L1335.32 1078.13C1333.32 1078.19 1331.27 1078.37 1329.16 1078.7C1306.1 1082.3 1287.89 1101.7 1283.19 1126.29L1227.26 1418.26H1257.73H1351.18V1418.25Z" fill="#FFDF4D"/>
<path d="M985.088 1312.09C989.257 1297.01 989.716 1280.93 985.767 1265.78C971.948 1212.78 922.194 1225.58 922.194 1225.58V1418.25H955.743L985.088 1312.09Z" fill="#FFDF4D"/>
<path d="M839.778 745C839.778 745 798.397 821.785 839.778 892.146C839.778 892.14 831.58 764.071 839.778 745Z" fill="#FFDF4D"/>
<path d="M463.521 808.369C463.521 808.369 358.682 830.955 576.751 1418.25H715.139V1214.96C715.139 1214.96 559.976 826.439 463.521 808.369ZM494.585 1037.52C497.959 976.344 551.452 951.237 551.452 951.237C541.599 1016.44 494.585 1037.52 494.585 1037.52ZM530.793 1161.9C535.595 1074.8 611.757 1039.06 611.757 1039.06C597.729 1131.9 530.793 1161.9 530.793 1161.9ZM570.642 1285.59C575.444 1198.49 651.606 1162.75 651.606 1162.75C637.578 1255.59 570.642 1285.59 570.642 1285.59Z" fill="#FFDF4D"/>
<defs>
<filter id="filter0_i_950:5" x="-3" y="-5" width="1001" height="999" filterUnits="userSpaceOnUse" color-interpolation-filters="sRGB">
<feFlood flood-opacity="0" result="BackgroundImageFix"/>
<feBlend mode="normal" in="SourceGraphic" in2="BackgroundImageFix" result="shape"/>
<feColorMatrix in="SourceAlpha" type="matrix" values="0 0 0 0 0 0 0 0 0 0 0 0 0 0 0 0 0 0 127 0" result="hardAlpha"/>
<feOffset dx="-3" dy="-13"/>
<feGaussianBlur stdDeviation="2.5"/>
<feComposite in2="hardAlpha" operator="arithmetic" k2="-1" k3="1"/>
<feColorMatrix type="matrix" values="0 0 0 0 0.27451 0 0 0 0 0.113725 0 0 0 0 0.588235 0 0 0 1 0"/>
<feBlend mode="normal" in2="shape" result="effect1_innerShadow_950:5"/>
</filter>
<linearGradient id="paint0_linear_950:5" x1="499" y1="-6.58124e-06" x2="719.032" y2="964.586" gradientUnits="userSpaceOnUse">
<stop stop-color="#764EBF"/>
<stop offset="1" stop-color="#532A9F"/>
</linearGradient>
</defs>
</svg>
