<svg width="1492" height="788" viewBox="0 0 1492 788" fill="none" xmlns="http://www.w3.org/2000/svg">
<mask id="mask0" style="mask-type:alpha" maskUnits="userSpaceOnUse" x="11" y="0" width="1470" height="764">
<rect x="11" width="1470" height="764" rx="36" fill="white"/>
</mask>
<g mask="url(#mask0)">
<path d="M141 755.641C141 755.641 192.949 904.601 359.516 810.102C359.516 810.096 300.413 659.353 141 755.641Z" fill="#FFDF4D"/>
<path d="M753.901 571.559C753.901 571.559 770.844 346.652 741.26 398.13C707.926 456.144 753.901 571.559 753.901 571.559Z" fill="#FFDF4D"/>
<path d="M736.847 315.221C743.24 310.83 743.24 301.004 736.847 296.613C733.625 294.399 729.369 294.399 726.146 296.613C719.748 301.004 719.748 310.83 726.146 315.221C729.369 317.435 733.625 317.435 736.847 315.221Z" fill="#FFDF4D"/>
<path d="M1411.17 269.998C1411.17 269.998 1394.59 229.836 1366.71 407.287C1362.88 431.662 1451.68 297.282 1411.17 269.998Z" fill="#FFDF4D"/>
<path d="M340.791 553.758C319.052 600.983 312.357 674.659 387.7 770.603C387.7 770.603 526.089 660.392 387.7 493.242C387.7 493.242 368.435 507.328 351.469 534.13C348.159 513.558 352.049 474.565 344.158 453.742C333.242 424.932 324.794 457.095 324.794 457.095C355.08 482.546 340.791 553.758 340.791 553.758Z" fill="#FFDF4D"/>
<path d="M925.74 904.72H789.865V548.81C789.865 535.756 799.69 525.173 811.808 525.173H903.804C915.921 525.173 925.746 535.756 925.746 548.81V904.72H925.74Z" fill="#FFDF4D"/>
<path d="M965.24 678.293V467.315H969.345C972.394 467.315 974.896 469.917 975.001 473.207L977.457 550.899C977.637 556.566 984.244 558.912 987.548 554.496C992.693 547.609 998.946 535.481 1003.86 514.352C1004.9 509.861 1010.04 508.222 1013.19 511.374L996.333 569.307C995.248 573.035 997.651 576.882 1001.26 577.207L1001.65 577.245C1003.53 577.414 1005.36 576.569 1006.54 574.987L1019.69 557.348C1021.63 554.74 1025.16 554.308 1027.6 556.372L1027.77 556.516C1029.95 558.361 1030.56 561.626 1029.23 564.241L999.08 623.425C998.627 624.307 998.406 625.307 998.441 626.314C998.586 631.006 1003.68 633.451 1007.02 630.436L1021.08 617.708C1021.91 616.957 1023.04 618.114 1022.39 619.046L977.637 682.79C976.354 684.623 974.35 685.711 972.22 685.736C968.376 685.761 965.24 682.427 965.24 678.293Z" fill="#FFDF4D"/>
<path d="M1077.29 903.018H1156.98L1176.03 716.923C1178.71 690.727 1175.41 664.219 1166.43 639.7L1163.07 630.53C1156.5 612.61 1140.64 600.644 1122.77 600.125C1105.16 599.612 1088.91 610.308 1081.31 627.428L1077.57 635.847C1066.09 661.698 1061.18 690.377 1063.34 718.943L1077.29 903.018Z" fill="#FFDF4D"/>
<path d="M1036.33 320.938C1036.33 320.938 1081.3 576.137 1115.69 576.187C1150.09 576.237 1164.04 423.105 1164.04 423.105C1164.04 423.105 1144.02 464.919 1139.55 444.416C1135.08 423.912 1157.06 352.193 1157.06 352.193C1157.06 352.193 1163.2 324.628 1155.46 323.208C1147.72 321.794 1139.36 344.906 1138.8 353.776C1138.25 362.639 1137.75 426.101 1114.3 403.734C1096.18 386.451 1100.92 323.221 1104.01 295.368C1104.74 288.7 1105.91 282.095 1107.59 275.627C1111 262.486 1115.78 233.55 1092.54 231.217C1072.44 229.197 1077.27 252.803 1082.71 268.74C1087.56 282.92 1090.17 297.882 1090.37 312.994C1090.69 337.463 1087.13 365.904 1067.1 353.132C1067.1 353.132 1052.27 339.214 1057.34 316.891C1062.42 294.567 1046.62 286.385 1036.34 298.138C1036.33 298.126 1033.96 308.178 1036.33 320.938Z" fill="#FFDF4D"/>
<path d="M1244.61 904.72C1256.31 854.768 1328.25 538.84 1343.65 260.966H1300.31H1261.96H1226.21C1226.21 260.966 1197.57 834.29 1182.54 904.72H1244.61Z" fill="#FFDF4D"/>
<path d="M1394.18 904.345L1443.14 631.925C1443.14 631.925 1443.1 631.781 1443.02 631.512C1443.06 631.293 1443.1 631.099 1443.14 630.881C1447.21 606.161 1436.33 588.929 1423.8 577.633L1443.01 475.284C1448.47 473.739 1452.96 468.916 1454 462.43C1455.36 453.98 1450.02 445.923 1442.29 443.897L1419.86 438.023C1411.63 435.865 1404.9 441.57 1404.9 450.696C1403.74 455.831 1405.04 461.004 1407.96 464.801L1378.32 564.222C1376.32 564.278 1374.27 564.46 1372.16 564.791C1349.1 568.394 1330.89 587.797 1326.19 612.379L1270.26 904.351H1300.73H1394.18V904.345Z" fill="#FFDF4D"/>
<path d="M1028.09 798.186C1032.26 783.105 1032.72 767.018 1028.77 751.875C1014.95 698.877 965.194 711.668 965.194 711.668V904.344H998.743L1028.09 798.186Z" fill="#FFDF4D"/>
<path d="M882.778 231.093C882.778 231.093 841.397 307.878 882.778 378.239C882.778 378.233 874.58 250.164 882.778 231.093Z" fill="#FFDF4D"/>
<path d="M506.521 294.461C506.521 294.461 401.682 317.048 619.751 904.339H758.139V701.049C758.139 701.049 602.976 312.532 506.521 294.461ZM537.585 523.61C540.959 462.437 594.452 437.33 594.452 437.33C584.599 502.537 537.585 523.61 537.585 523.61ZM573.793 647.988C578.595 560.895 654.757 525.148 654.757 525.148C640.729 617.99 573.793 647.988 573.793 647.988ZM613.642 771.679C618.444 684.586 694.606 648.845 694.606 648.845C680.578 741.68 613.642 771.679 613.642 771.679Z" fill="#FFDF4D"/>
<g filter="url(#filter0_i)">
<ellipse cx="79.684" cy="419.49" rx="475.052" ry="473.194" fill="url(#paint0_linear)"/>
</g>
</g>
<defs>
<filter id="filter0_i" x="-398.368" y="-58.7031" width="953.103" height="951.387" filterUnits="userSpaceOnUse" color-interpolation-filters="sRGB">
<feFlood flood-opacity="0" result="BackgroundImageFix"/>
<feBlend mode="normal" in="SourceGraphic" in2="BackgroundImageFix" result="shape"/>
<feColorMatrix in="SourceAlpha" type="matrix" values="0 0 0 0 0 0 0 0 0 0 0 0 0 0 0 0 0 0 127 0" result="hardAlpha"/>
<feOffset dx="-3" dy="-13"/>
<feGaussianBlur stdDeviation="2.5"/>
<feComposite in2="hardAlpha" operator="arithmetic" k2="-1" k3="1"/>
<feColorMatrix type="matrix" values="0 0 0 0 0.27451 0 0 0 0 0.113725 0 0 0 0 0.588235 0 0 0 1 0"/>
<feBlend mode="normal" in2="shape" result="effect1_innerShadow"/>
</filter>
<linearGradient id="paint0_linear" x1="79.684" y1="-53.7031" x2="289.195" y2="864.67" gradientUnits="userSpaceOnUse">
<stop stop-color="#764EBF"/>
<stop offset="1" stop-color="#532A9F"/>
</linearGradient>
</defs>
</svg>
