<svg width="126" height="18" viewBox="0 0 126 18" fill="none" xmlns="http://www.w3.org/2000/svg">
<path d="M5.554 14.3886C3.82689 14.3886 2.51222 13.9246 1.61 12.9966C0.720667 12.0686 0.243778 10.7862 0.179333 9.14931C0.166444 8.80131 0.16 8.2342 0.16 7.44798C0.16 6.64887 0.166444 6.06887 0.179333 5.70798C0.243778 4.08398 0.727111 2.80798 1.62933 1.87998C2.53156 0.939091 3.83978 0.468646 5.554 0.468646C6.70111 0.468646 7.67422 0.674868 8.47333 1.08731C9.27244 1.48687 9.87822 2.01531 10.2907 2.67265C10.7031 3.32998 10.9287 4.03242 10.9673 4.77998V4.81865C10.9673 4.92176 10.9222 5.01198 10.832 5.08931C10.7547 5.15376 10.6644 5.18598 10.5613 5.18598H9.498C9.24022 5.18598 9.07911 5.03776 9.01467 4.74131C8.79556 3.77465 8.40244 3.09798 7.83533 2.71131C7.26822 2.31176 6.50778 2.11198 5.554 2.11198C3.33711 2.11198 2.19 3.34287 2.11267 5.80465C2.09978 6.15265 2.09333 6.68754 2.09333 7.40931C2.09333 8.13109 2.09978 8.67887 2.11267 9.05265C2.19 11.5144 3.33711 12.7453 5.554 12.7453C6.50778 12.7453 7.26822 12.552 7.83533 12.1653C8.41533 11.7658 8.80844 11.0826 9.01467 10.116C9.05333 9.94842 9.11133 9.83242 9.18867 9.76798C9.266 9.70353 9.36911 9.67131 9.498 9.67131H10.5613C10.6773 9.67131 10.774 9.70998 10.8513 9.78731C10.9416 9.85176 10.9802 9.94198 10.9673 10.058C10.9287 10.8184 10.7031 11.5273 10.2907 12.1846C9.87822 12.842 9.27244 13.3769 8.47333 13.7893C7.67422 14.1889 6.70111 14.3886 5.554 14.3886ZM21.5623 4.14198C21.6654 4.14198 21.7556 4.18065 21.833 4.25798C21.9103 4.33531 21.949 4.42554 21.949 4.52865C21.949 4.61887 21.9167 4.73487 21.8523 4.87665L18.179 13.5766L18.005 13.9633C17.6699 14.7753 17.3605 15.4455 17.077 15.974C16.7934 16.5024 16.439 16.9471 16.0136 17.308C15.5883 17.6818 15.0856 17.8686 14.5056 17.8686H13.771C13.6421 17.8686 13.5325 17.83 13.4423 17.7526C13.365 17.6753 13.3263 17.5658 13.3263 17.424V16.7666C13.3263 16.6378 13.365 16.5282 13.4423 16.438C13.5325 16.3606 13.6421 16.322 13.771 16.322H14.2736C14.5572 16.322 14.7892 16.264 14.9696 16.148C15.1501 16.0449 15.3112 15.8644 15.453 15.6066C15.6076 15.3489 15.7945 14.9558 16.0136 14.4273L16.3423 13.6346L12.553 4.87665C12.4885 4.70909 12.4563 4.59953 12.4563 4.54798C12.4692 4.43198 12.5143 4.33531 12.5916 4.25798C12.669 4.18065 12.7592 4.14198 12.8623 4.14198H13.771C13.9901 4.14198 14.1512 4.25153 14.2543 4.47065L17.2123 11.566L20.209 4.47065C20.2992 4.25153 20.4603 4.14198 20.6923 4.14198H21.5623ZM33.7974 4.14198C33.9005 4.14198 33.9908 4.18065 34.0681 4.25798C34.1454 4.32242 34.1841 4.4062 34.1841 4.50931V13.77C34.1841 13.8989 34.1454 14.002 34.0681 14.0793C33.9908 14.1566 33.8941 14.1953 33.7781 14.1953H32.8308C32.7019 14.1953 32.5988 14.1566 32.5214 14.0793C32.4441 14.002 32.4054 13.8989 32.4054 13.77V7.40931L29.9308 12.088C29.8405 12.2555 29.7503 12.3844 29.6601 12.4746C29.5828 12.552 29.4603 12.5906 29.2928 12.5906H28.7901C28.6354 12.5906 28.513 12.552 28.4228 12.4746C28.3454 12.3973 28.2552 12.2684 28.1521 12.088L25.6968 7.52531V13.77C25.6968 13.8989 25.6581 14.002 25.5808 14.0793C25.5034 14.1566 25.4003 14.1953 25.2714 14.1953H24.3241C24.1952 14.1953 24.0921 14.1566 24.0148 14.0793C23.9374 14.002 23.8988 13.8989 23.8988 13.77V4.50931C23.8988 4.41909 23.9374 4.33531 24.0148 4.25798C24.0921 4.18065 24.1823 4.14198 24.2854 4.14198H25.2714C25.4648 4.14198 25.6259 4.24509 25.7548 4.45131L29.0414 10.5993L32.3474 4.45131C32.4505 4.24509 32.6117 4.14198 32.8308 4.14198H33.7974ZM46.9758 4.14198C47.0789 4.14198 47.1691 4.18065 47.2465 4.25798C47.3238 4.32242 47.3625 4.4062 47.3625 4.50931V13.77C47.3625 13.8989 47.3238 14.002 47.2465 14.0793C47.1691 14.1566 47.0725 14.1953 46.9565 14.1953H46.0091C45.8803 14.1953 45.7771 14.1566 45.6998 14.0793C45.6225 14.002 45.5838 13.8989 45.5838 13.77V7.40931L43.1091 12.088C43.0189 12.2555 42.9287 12.3844 42.8385 12.4746C42.7611 12.552 42.6387 12.5906 42.4711 12.5906H41.9685C41.8138 12.5906 41.6914 12.552 41.6011 12.4746C41.5238 12.3973 41.4336 12.2684 41.3305 12.088L38.8751 7.52531V13.77C38.8751 13.8989 38.8365 14.002 38.7591 14.0793C38.6818 14.1566 38.5787 14.1953 38.4498 14.1953H37.5025C37.3736 14.1953 37.2705 14.1566 37.1931 14.0793C37.1158 14.002 37.0771 13.8989 37.0771 13.77V4.50931C37.0771 4.41909 37.1158 4.33531 37.1931 4.25798C37.2705 4.18065 37.3607 4.14198 37.4638 4.14198H38.4498C38.6431 4.14198 38.8043 4.24509 38.9331 4.45131L42.2198 10.5993L45.5258 4.45131C45.6289 4.24509 45.79 4.14198 46.0091 4.14198H46.9758ZM53.0589 14.3886C52.4273 14.3886 51.8409 14.2598 51.2995 14.002C50.7582 13.7442 50.3264 13.3962 50.0042 12.958C49.6949 12.5069 49.5402 12.0106 49.5402 11.4693C49.5402 10.6186 49.8882 9.92265 50.5842 9.38131C51.2931 8.82709 52.2469 8.4662 53.4455 8.29865L56.3262 7.89265V7.33198C56.3262 6.01731 55.5722 5.35998 54.0642 5.35998C53.4971 5.35998 53.0331 5.48242 52.6722 5.72731C52.3113 5.95931 52.0406 6.23642 51.8602 6.55865C51.8215 6.67465 51.77 6.75842 51.7055 6.80998C51.654 6.86153 51.5766 6.88731 51.4735 6.88731H50.6422C50.5262 6.88731 50.4231 6.84865 50.3329 6.77131C50.2555 6.68109 50.2169 6.57798 50.2169 6.46198C50.2298 6.15265 50.3715 5.80465 50.6422 5.41798C50.9258 5.01842 51.3575 4.67687 51.9375 4.39331C52.5175 4.09687 53.2329 3.94865 54.0835 3.94865C55.5271 3.94865 56.5646 4.2902 57.1962 4.97331C57.8278 5.64353 58.1435 6.48131 58.1435 7.48665V13.7506C58.1435 13.8795 58.0984 13.9891 58.0082 14.0793C57.9309 14.1566 57.8278 14.1953 57.6989 14.1953H56.8095C56.6806 14.1953 56.5711 14.1566 56.4809 14.0793C56.4035 13.9891 56.3649 13.8795 56.3649 13.7506V12.9193C56.0813 13.3318 55.6689 13.6798 55.1275 13.9633C54.5862 14.2469 53.8966 14.3886 53.0589 14.3886ZM53.4649 12.9386C54.3026 12.9386 54.9858 12.668 55.5142 12.1266C56.0555 11.5724 56.3262 10.7798 56.3262 9.74865V9.20731L54.0835 9.53598C53.1684 9.66487 52.4789 9.88398 52.0149 10.1933C51.5509 10.4898 51.3189 10.87 51.3189 11.334C51.3189 11.8495 51.5315 12.2491 51.9569 12.5326C52.3822 12.8033 52.8849 12.9386 53.4649 12.9386ZM69.1611 14.3886C68.2202 14.3886 67.4405 14.2404 66.8218 13.944C66.216 13.6475 65.7713 13.2866 65.4878 12.8613C65.2171 12.436 65.0753 12.0171 65.0625 11.6046V11.566C65.0625 11.4629 65.1011 11.3791 65.1785 11.3146C65.2558 11.2502 65.346 11.218 65.4491 11.218H66.3578C66.5898 11.218 66.7445 11.3404 66.8218 11.5853C66.9636 12.0751 67.2407 12.4231 67.6531 12.6293C68.0785 12.8226 68.6327 12.9193 69.3158 12.9193C69.9731 12.9193 70.5145 12.784 70.9398 12.5133C71.3651 12.2426 71.5778 11.8431 71.5778 11.3146C71.5778 10.7733 71.4231 10.3738 71.1138 10.116C70.8173 9.84531 70.3533 9.70998 69.7218 9.70998H68.6585C68.5425 9.70998 68.4458 9.67131 68.3685 9.59398C68.2911 9.51665 68.2525 9.41353 68.2525 9.28465V8.76265C68.2525 8.63376 68.2911 8.53065 68.3685 8.45331C68.4458 8.37598 68.5425 8.33731 68.6585 8.33731H69.6058C70.7013 8.33731 71.2491 7.90554 71.2491 7.04198C71.2491 6.57798 71.0816 6.19131 70.7465 5.88198C70.4242 5.57265 69.8958 5.41798 69.1611 5.41798C68.4522 5.41798 67.9367 5.54042 67.6145 5.78531C67.3051 6.01731 67.0796 6.39109 66.9378 6.90665C66.8862 7.03553 66.8218 7.1322 66.7445 7.19665C66.68 7.2482 66.5833 7.27398 66.4545 7.27398H65.5845C65.4685 7.27398 65.3718 7.24176 65.2945 7.17731C65.2171 7.09998 65.1785 7.00976 65.1785 6.90665C65.1913 6.3782 65.346 5.88842 65.6425 5.43731C65.9389 4.9862 66.3836 4.62531 66.9765 4.35465C67.5693 4.08398 68.2976 3.94865 69.1611 3.94865C70.0633 3.94865 70.8045 4.09042 71.3845 4.37398C71.9645 4.65753 72.3833 5.01198 72.6411 5.43731C72.8989 5.86265 73.0278 6.30731 73.0278 6.77131C73.0278 7.29976 72.9376 7.73153 72.7571 8.06665C72.5896 8.38887 72.2802 8.65953 71.8291 8.87865C72.3833 9.08487 72.7765 9.40709 73.0085 9.84531C73.2533 10.2835 73.3758 10.8184 73.3758 11.45C73.3758 12.3909 72.9891 13.1191 72.2158 13.6346C71.4425 14.1373 70.4242 14.3886 69.1611 14.3886ZM78.3583 14.3886C77.7268 14.3886 77.1403 14.2598 76.599 14.002C76.0577 13.7442 75.6259 13.3962 75.3037 12.958C74.9943 12.5069 74.8397 12.0106 74.8397 11.4693C74.8397 10.6186 75.1877 9.92265 75.8837 9.38131C76.5926 8.82709 77.5463 8.4662 78.745 8.29865L81.6257 7.89265V7.33198C81.6257 6.01731 80.8717 5.35998 79.3637 5.35998C78.7966 5.35998 78.3326 5.48242 77.9717 5.72731C77.6108 5.95931 77.3401 6.23642 77.1597 6.55865C77.121 6.67465 77.0695 6.75842 77.005 6.80998C76.9535 6.86153 76.8761 6.88731 76.773 6.88731H75.9417C75.8257 6.88731 75.7226 6.84865 75.6323 6.77131C75.555 6.68109 75.5163 6.57798 75.5163 6.46198C75.5292 6.15265 75.671 5.80465 75.9417 5.41798C76.2252 5.01842 76.657 4.67687 77.237 4.39331C77.817 4.09687 78.5323 3.94865 79.383 3.94865C80.8266 3.94865 81.8641 4.2902 82.4957 4.97331C83.1272 5.64353 83.443 6.48131 83.443 7.48665V13.7506C83.443 13.8795 83.3979 13.9891 83.3077 14.0793C83.2303 14.1566 83.1272 14.1953 82.9983 14.1953H82.109C81.9801 14.1953 81.8706 14.1566 81.7803 14.0793C81.703 13.9891 81.6643 13.8795 81.6643 13.7506V12.9193C81.3808 13.3318 80.9683 13.6798 80.427 13.9633C79.8857 14.2469 79.1961 14.3886 78.3583 14.3886ZM78.7643 12.9386C79.6021 12.9386 80.2852 12.668 80.8137 12.1266C81.355 11.5724 81.6257 10.7798 81.6257 9.74865V9.20731L79.383 9.53598C78.4679 9.66487 77.7783 9.88398 77.3143 10.1933C76.8503 10.4898 76.6183 10.87 76.6183 11.334C76.6183 11.8495 76.831 12.2491 77.2563 12.5326C77.6817 12.8033 78.1843 12.9386 78.7643 12.9386ZM94.613 13.6346C94.6774 13.712 94.7097 13.7958 94.7097 13.886C94.7097 13.9762 94.671 14.0535 94.5937 14.118C94.5292 14.1695 94.439 14.1953 94.323 14.1953H93.1437C92.9374 14.1953 92.7699 14.0986 92.641 13.9053L89.8377 9.86465H88.0203V13.7506C88.0203 13.8795 87.9752 13.9891 87.885 14.0793C87.8077 14.1566 87.7046 14.1953 87.5757 14.1953H86.667C86.5381 14.1953 86.4286 14.1566 86.3383 14.0793C86.261 13.9891 86.2223 13.8795 86.2223 13.7506V4.58665C86.2223 4.45776 86.261 4.35465 86.3383 4.27731C86.4286 4.18709 86.5381 4.14198 86.667 4.14198H87.5757C87.7046 4.14198 87.8077 4.18709 87.885 4.27731C87.9752 4.35465 88.0203 4.45776 88.0203 4.58665V8.29865H89.799L92.3897 4.43198C92.5443 4.23865 92.7183 4.14198 92.9117 4.14198H93.917C94.033 4.14198 94.1297 4.1742 94.207 4.23865C94.2843 4.2902 94.323 4.36109 94.323 4.45131C94.323 4.51576 94.2908 4.59309 94.2263 4.68331L91.3457 8.95598L94.613 13.6346ZM99.3909 14.3886C98.7593 14.3886 98.1729 14.2598 97.6316 14.002C97.0902 13.7442 96.6585 13.3962 96.3362 12.958C96.0269 12.5069 95.8722 12.0106 95.8722 11.4693C95.8722 10.6186 96.2202 9.92265 96.9162 9.38131C97.6251 8.82709 98.5789 8.4662 99.7776 8.29865L102.658 7.89265V7.33198C102.658 6.01731 101.904 5.35998 100.396 5.35998C99.8291 5.35998 99.3651 5.48242 99.0042 5.72731C98.6433 5.95931 98.3727 6.23642 98.1922 6.55865C98.1536 6.67465 98.102 6.75842 98.0376 6.80998C97.986 6.86153 97.9087 6.88731 97.8056 6.88731H96.9742C96.8582 6.88731 96.7551 6.84865 96.6649 6.77131C96.5876 6.68109 96.5489 6.57798 96.5489 6.46198C96.5618 6.15265 96.7036 5.80465 96.9742 5.41798C97.2578 5.01842 97.6896 4.67687 98.2696 4.39331C98.8496 4.09687 99.5649 3.94865 100.416 3.94865C101.859 3.94865 102.897 4.2902 103.528 4.97331C104.16 5.64353 104.476 6.48131 104.476 7.48665V13.7506C104.476 13.8795 104.43 13.9891 104.34 14.0793C104.263 14.1566 104.16 14.1953 104.031 14.1953H103.142C103.013 14.1953 102.903 14.1566 102.813 14.0793C102.736 13.9891 102.697 13.8795 102.697 13.7506V12.9193C102.413 13.3318 102.001 13.6798 101.46 13.9633C100.918 14.2469 100.229 14.3886 99.3909 14.3886ZM99.7969 12.9386C100.635 12.9386 101.318 12.668 101.846 12.1266C102.388 11.5724 102.658 10.7798 102.658 9.74865V9.20731L100.416 9.53598C99.5005 9.66487 98.8109 9.88398 98.3469 10.1933C97.8829 10.4898 97.6509 10.87 97.6509 11.334C97.6509 11.8495 97.8636 12.2491 98.2889 12.5326C98.7142 12.8033 99.2169 12.9386 99.7969 12.9386ZM110.754 14.3886C109.813 14.3886 109.034 14.2404 108.415 13.944C107.809 13.6475 107.364 13.2866 107.081 12.8613C106.81 12.436 106.668 12.0171 106.656 11.6046V11.566C106.656 11.4629 106.694 11.3791 106.772 11.3146C106.849 11.2502 106.939 11.218 107.042 11.218H107.951C108.183 11.218 108.338 11.3404 108.415 11.5853C108.557 12.0751 108.834 12.4231 109.246 12.6293C109.672 12.8226 110.226 12.9193 110.909 12.9193C111.566 12.9193 112.108 12.784 112.533 12.5133C112.958 12.2426 113.171 11.8431 113.171 11.3146C113.171 10.7733 113.016 10.3738 112.707 10.116C112.41 9.84531 111.946 9.70998 111.315 9.70998H110.252C110.136 9.70998 110.039 9.67131 109.962 9.59398C109.884 9.51665 109.846 9.41353 109.846 9.28465V8.76265C109.846 8.63376 109.884 8.53065 109.962 8.45331C110.039 8.37598 110.136 8.33731 110.252 8.33731H111.199C112.294 8.33731 112.842 7.90554 112.842 7.04198C112.842 6.57798 112.675 6.19131 112.34 5.88198C112.017 5.57265 111.489 5.41798 110.754 5.41798C110.045 5.41798 109.53 5.54042 109.208 5.78531C108.898 6.01731 108.673 6.39109 108.531 6.90665C108.479 7.03553 108.415 7.1322 108.338 7.19665C108.273 7.2482 108.176 7.27398 108.048 7.27398H107.178C107.062 7.27398 106.965 7.24176 106.888 7.17731C106.81 7.09998 106.772 7.00976 106.772 6.90665C106.784 6.3782 106.939 5.88842 107.236 5.43731C107.532 4.9862 107.977 4.62531 108.57 4.35465C109.162 4.08398 109.891 3.94865 110.754 3.94865C111.656 3.94865 112.398 4.09042 112.978 4.37398C113.558 4.65753 113.976 5.01198 114.234 5.43731C114.492 5.86265 114.621 6.30731 114.621 6.77131C114.621 7.29976 114.531 7.73153 114.35 8.06665C114.183 8.38887 113.873 8.65953 113.422 8.87865C113.976 9.08487 114.37 9.40709 114.602 9.84531C114.846 10.2835 114.969 10.8184 114.969 11.45C114.969 12.3909 114.582 13.1191 113.809 13.6346C113.036 14.1373 112.017 14.3886 110.754 14.3886ZM119.951 14.3886C119.32 14.3886 118.733 14.2598 118.192 14.002C117.651 13.7442 117.219 13.3962 116.897 12.958C116.587 12.5069 116.433 12.0106 116.433 11.4693C116.433 10.6186 116.781 9.92265 117.477 9.38131C118.186 8.82709 119.139 8.4662 120.338 8.29865L123.219 7.89265V7.33198C123.219 6.01731 122.465 5.35998 120.957 5.35998C120.39 5.35998 119.926 5.48242 119.565 5.72731C119.204 5.95931 118.933 6.23642 118.753 6.55865C118.714 6.67465 118.663 6.75842 118.598 6.80998C118.547 6.86153 118.469 6.88731 118.366 6.88731H117.535C117.419 6.88731 117.316 6.84865 117.225 6.77131C117.148 6.68109 117.109 6.57798 117.109 6.46198C117.122 6.15265 117.264 5.80465 117.535 5.41798C117.818 5.01842 118.25 4.67687 118.83 4.39331C119.41 4.09687 120.125 3.94865 120.976 3.94865C122.42 3.94865 123.457 4.2902 124.089 4.97331C124.72 5.64353 125.036 6.48131 125.036 7.48665V13.7506C125.036 13.8795 124.991 13.9891 124.901 14.0793C124.823 14.1566 124.72 14.1953 124.591 14.1953H123.702C123.573 14.1953 123.464 14.1566 123.373 14.0793C123.296 13.9891 123.257 13.8795 123.257 13.7506V12.9193C122.974 13.3318 122.561 13.6798 122.02 13.9633C121.479 14.2469 120.789 14.3886 119.951 14.3886ZM120.357 12.9386C121.195 12.9386 121.878 12.668 122.407 12.1266C122.948 11.5724 123.219 10.7798 123.219 9.74865V9.20731L120.976 9.53598C120.061 9.66487 119.371 9.88398 118.907 10.1933C118.443 10.4898 118.211 10.87 118.211 11.334C118.211 11.8495 118.424 12.2491 118.849 12.5326C119.275 12.8033 119.777 12.9386 120.357 12.9386Z" fill="black"/>
</svg>
