<svg width="164" height="46" viewBox="0 0 164 46" fill="none" xmlns="http://www.w3.org/2000/svg">
<rect x="0.5" width="163" height="45" rx="22.5" fill="#532A9F"/>
<path d="M55.336 29C55.216 29 55.114 28.958 55.03 28.874C54.946 28.79 54.904 28.688 54.904 28.568V16.85C54.904 16.718 54.94 16.61 55.012 16.526C55.096 16.442 55.204 16.4 55.336 16.4H60.556C61.96 16.4 63.004 16.712 63.688 17.336C64.384 17.948 64.732 18.788 64.732 19.856C64.732 20.48 64.576 21.014 64.264 21.458C63.964 21.89 63.61 22.202 63.202 22.394C63.706 22.622 64.126 22.994 64.462 23.51C64.81 24.026 64.984 24.614 64.984 25.274C64.984 26.39 64.606 27.29 63.85 27.974C63.106 28.658 62.056 29 60.7 29H55.336ZM60.232 21.566C60.856 21.566 61.33 21.416 61.654 21.116C61.978 20.816 62.14 20.414 62.14 19.91C62.14 19.394 61.978 18.998 61.654 18.722C61.33 18.434 60.856 18.29 60.232 18.29H57.406V21.566H60.232ZM60.412 27.092C61.036 27.092 61.522 26.924 61.87 26.588C62.218 26.24 62.392 25.802 62.392 25.274C62.392 24.734 62.218 24.296 61.87 23.96C61.522 23.612 61.036 23.438 60.412 23.438H57.406V27.092H60.412ZM71.1678 29.18C69.7638 29.18 68.6778 28.82 67.9098 28.1C67.1418 27.368 66.7278 26.372 66.6678 25.112L66.6498 24.32L66.6678 23.528C66.7278 22.28 67.1478 21.29 67.9278 20.558C68.7078 19.826 69.7878 19.46 71.1678 19.46C72.5478 19.46 73.6278 19.826 74.4078 20.558C75.1878 21.29 75.6078 22.28 75.6678 23.528C75.6798 23.672 75.6858 23.936 75.6858 24.32C75.6858 24.704 75.6798 24.968 75.6678 25.112C75.6078 26.372 75.1938 27.368 74.4258 28.1C73.6578 28.82 72.5718 29.18 71.1678 29.18ZM71.1678 27.398C71.8038 27.398 72.2958 27.2 72.6438 26.804C72.9918 26.396 73.1838 25.802 73.2198 25.022C73.2318 24.902 73.2378 24.668 73.2378 24.32C73.2378 23.972 73.2318 23.738 73.2198 23.618C73.1838 22.838 72.9918 22.25 72.6438 21.854C72.2958 21.446 71.8038 21.242 71.1678 21.242C70.5318 21.242 70.0398 21.446 69.6918 21.854C69.3438 22.25 69.1518 22.838 69.1158 23.618L69.0978 24.32L69.1158 25.022C69.1518 25.802 69.3438 26.396 69.6918 26.804C70.0398 27.2 70.5318 27.398 71.1678 27.398ZM86.2122 19.64C86.3202 19.64 86.4162 19.682 86.5002 19.766C86.5842 19.838 86.6262 19.928 86.6262 20.036V28.568C86.6262 28.688 86.5842 28.79 86.5002 28.874C86.4162 28.958 86.3142 29 86.1942 29H84.7002C84.5802 29 84.4782 28.958 84.3942 28.874C84.3102 28.79 84.2682 28.688 84.2682 28.568V22.79L79.9482 28.712C79.8402 28.904 79.6782 29 79.4622 29H78.0942C77.9862 29 77.8902 28.964 77.8062 28.892C77.7222 28.808 77.6802 28.706 77.6802 28.586V20.072C77.6802 19.952 77.7222 19.85 77.8062 19.766C77.8902 19.682 77.9922 19.64 78.1122 19.64H79.6062C79.7382 19.64 79.8402 19.682 79.9122 19.766C79.9962 19.838 80.0382 19.94 80.0382 20.072V25.868L84.3582 19.928C84.4902 19.736 84.6522 19.64 84.8442 19.64H86.2122ZM82.2522 18.416C81.2322 18.416 80.4882 18.194 80.0202 17.75C79.5522 17.294 79.3182 16.712 79.3182 16.004C79.3182 15.908 79.3482 15.83 79.4082 15.77C79.4682 15.698 79.5522 15.662 79.6602 15.662H80.6862C80.7942 15.662 80.8782 15.698 80.9382 15.77C80.9982 15.83 81.0282 15.908 81.0282 16.004C81.0282 16.688 81.4362 17.03 82.2522 17.03C83.0682 17.03 83.4762 16.688 83.4762 16.004C83.4762 15.908 83.5062 15.83 83.5662 15.77C83.6262 15.698 83.7102 15.662 83.8182 15.662H84.8622C84.9702 15.662 85.0542 15.698 85.1142 15.77C85.1742 15.83 85.2042 15.908 85.2042 16.004C85.2042 16.712 84.9642 17.294 84.4842 17.75C84.0162 18.194 83.2722 18.416 82.2522 18.416ZM91.757 29C91.637 29 91.535 28.958 91.451 28.874C91.367 28.79 91.325 28.688 91.325 28.568V21.548H88.391C88.271 21.548 88.169 21.506 88.085 21.422C88.001 21.338 87.959 21.23 87.959 21.098V20.072C87.959 19.94 88.001 19.838 88.085 19.766C88.169 19.682 88.271 19.64 88.391 19.64H96.563C96.695 19.64 96.803 19.682 96.887 19.766C96.971 19.85 97.013 19.952 97.013 20.072V21.098C97.013 21.218 96.971 21.326 96.887 21.422C96.803 21.506 96.695 21.548 96.563 21.548H93.647V28.568C93.647 28.688 93.605 28.79 93.521 28.874C93.449 28.958 93.347 29 93.215 29H91.757ZM106.972 19.64C107.08 19.64 107.176 19.682 107.26 19.766C107.344 19.838 107.386 19.928 107.386 20.036V28.568C107.386 28.688 107.344 28.79 107.26 28.874C107.176 28.958 107.074 29 106.954 29H105.46C105.34 29 105.238 28.958 105.154 28.874C105.07 28.79 105.028 28.688 105.028 28.568V22.79L100.708 28.712C100.6 28.904 100.438 29 100.222 29H98.854C98.746 29 98.65 28.964 98.566 28.892C98.482 28.808 98.44 28.706 98.44 28.586V20.072C98.44 19.952 98.482 19.85 98.566 19.766C98.65 19.682 98.752 19.64 98.872 19.64H100.366C100.498 19.64 100.6 19.682 100.672 19.766C100.756 19.838 100.798 19.94 100.798 20.072V25.868L105.118 19.928C105.25 19.736 105.412 19.64 105.604 19.64H106.972Z" fill="white"/>
</svg>
