<svg width="141" height="161" viewBox="0 0 141 161" fill="none" xmlns="http://www.w3.org/2000/svg">
<path d="M9.35155 50.8315C9.35155 50.8315 7.31376 30.1156 18.3375 24.5627C29.3613 19.0098 38.1624 38.5692 38.1624 38.5692C38.1624 38.5692 46.5424 56.6702 73.5908 46.4904C100.639 36.3107 120.983 49.3774 124.185 76.8607C127.386 104.344 127.463 131.946 111.339 138.965C99.6455 144.06 66.7415 148.056 37.4721 118.5C24.5716 105.471 15.9263 88.8367 12.1965 70.8845C10.6493 63.3809 9.27001 55.3864 9.35155 50.8315Z" fill="white" stroke="black" stroke-width="4" stroke-miterlimit="10" stroke-linecap="round" stroke-linejoin="round"/>
<path d="M25.3522 38.7667C24.6713 37.7436 23.0999 38.014 22.7921 39.2025C20.0191 50.0202 13.4868 87.6324 47.6733 114.038C87.978 145.173 109.302 129.088 109.302 129.088C109.302 129.088 121.961 125.433 114.672 80.5111C114.369 78.652 114.083 76.7879 113.823 74.9229C112.918 68.485 107.584 45.6749 77.9554 54.8869C45.8613 64.8614 33.5952 51.1183 25.3522 38.7667Z" fill="white" stroke="black" stroke-width="4" stroke-miterlimit="10" stroke-linecap="round" stroke-linejoin="round"/>
<path d="M94.2199 123.387C103.07 120.832 108.173 111.586 105.618 102.736C103.062 93.8856 93.8163 88.7826 84.9661 91.338C76.1159 93.8933 71.0129 103.139 73.5683 111.99C76.1236 120.84 85.3697 125.943 94.2199 123.387Z" fill="white" stroke="black" stroke-width="4" stroke-miterlimit="10" stroke-linecap="round" stroke-linejoin="round"/>
<path d="M81.9907 80.6823C77.3308 78.5076 76.5475 72.2054 80.4866 68.9066C85.0207 65.1074 92.6539 59.7625 97.5254 66.6097C104.612 76.5774 93.325 85.9668 81.9907 80.6823Z" fill="white" stroke="black" stroke-width="4" stroke-miterlimit="10" stroke-linecap="round" stroke-linejoin="round"/>
<path d="M53.9859 69.4926C60.7096 66.0977 65.8908 71.2375 67.2692 78.6382C68.4547 85.0203 67.653 93.91 55.6534 97.3747C36.0177 103.044 29.74 66.5711 29.74 66.5711C28.4938 54.8789 37.6948 67.1118 37.6948 67.1118C37.6948 67.1118 42.9106 75.0857 53.9859 69.4926Z" fill="white" stroke="black" stroke-width="4" stroke-miterlimit="10" stroke-linecap="round" stroke-linejoin="round"/>
</svg>
