<svg width="90" height="135" viewBox="0 0 90 135" fill="none" xmlns="http://www.w3.org/2000/svg">
<path d="M47.6418 27.1739C45.3124 20.2654 45.8237 14.2147 45.8237 14.2147H18.2805C18.2805 14.2147 18.7975 20.2654 16.4625 27.1739C15.4398 30.2021 13.5025 32.8553 10.9288 34.7528C5.82127 38.5309 2.50903 44.5929 2.50903 51.4333V112.247C2.50903 116.78 6.18487 120.456 10.7186 120.456H53.3913C57.925 120.456 61.6009 116.78 61.6009 112.247V51.439C61.6009 44.5986 58.2886 38.5366 53.1811 34.7585C50.6017 32.8553 48.6644 30.2021 47.6418 27.1739Z" fill="white" stroke="black" stroke-width="4" stroke-miterlimit="10" stroke-linecap="round" stroke-linejoin="round"/>
<path d="M45.5909 14.4989H18.5135C15.9512 14.4989 13.8718 12.4195 13.8718 9.8572V6.64155C13.8718 4.07926 15.9512 1.99988 18.5135 1.99988H45.5909C48.1531 1.99988 50.2325 4.07926 50.2325 6.64155V9.8572C50.2325 12.4252 48.1531 14.4989 45.5909 14.4989Z" fill="white" stroke="black" stroke-width="4" stroke-miterlimit="10" stroke-linecap="round" stroke-linejoin="round"/>
<path d="M87.1955 107.105C87.1955 121.223 75.7475 132.671 61.6294 132.671C47.5112 132.671 36.0632 121.223 36.0632 107.105C36.0632 92.9869 47.5112 73.5851 61.6294 73.5851C75.7475 73.5851 87.1955 92.9869 87.1955 107.105Z" fill="white" stroke="black" stroke-width="4" stroke-miterlimit="10" stroke-linecap="round" stroke-linejoin="round"/>
<path d="M53.6753 115.059C53.9891 115.059 54.2434 114.805 54.2434 114.491C54.2434 114.177 53.9891 113.923 53.6753 113.923C53.3615 113.923 53.1072 114.177 53.1072 114.491C53.1072 114.805 53.3615 115.059 53.6753 115.059Z" fill="white" stroke="black" stroke-width="4" stroke-miterlimit="10" stroke-linecap="round" stroke-linejoin="round"/>
<path d="M59.3567 121.308C59.6705 121.308 59.9248 121.054 59.9248 120.74C59.9248 120.426 59.6705 120.172 59.3567 120.172C59.0429 120.172 58.7886 120.426 58.7886 120.74C58.7886 121.054 59.0429 121.308 59.3567 121.308Z" fill="white" stroke="black" stroke-width="4" stroke-miterlimit="10" stroke-linecap="round" stroke-linejoin="round"/>
</svg>
