<svg width="156" height="125" viewBox="0 0 156 125" fill="none" xmlns="http://www.w3.org/2000/svg">
<path d="M63.7305 25.5674L71.0443 14.3896C71.8734 13.1277 70.837 11.4671 69.3447 11.6695L59.6028 12.973C58.8625 13.0742 58.1341 12.6873 57.8025 12.0147L53.2898 2.9736C52.668 1.72963 50.9269 1.66416 50.2103 2.85456L44.9337 11.6873C44.531 12.3659 43.7256 12.6873 42.9676 12.4849L34.1496 10.0803C32.598 9.65771 31.3425 11.3778 32.213 12.7349L41.037 26.5674" fill="white"/>
<path d="M63.7305 25.5674L71.0443 14.3896C71.8734 13.1277 70.837 11.4671 69.3447 11.6695L59.6028 12.973C58.8625 13.0742 58.1341 12.6873 57.8025 12.0147L53.2898 2.9736C52.668 1.72963 50.9269 1.66416 50.2103 2.85456L44.9337 11.6873C44.531 12.3659 43.7256 12.6873 42.9676 12.4849L34.1496 10.0803C32.598 9.65771 31.3425 11.3778 32.213 12.7349L41.037 26.5674" stroke="black" stroke-width="4" stroke-miterlimit="10" stroke-linecap="round" stroke-linejoin="round"/>
<path d="M52.3127 26.3948C52.3127 26.3948 104.196 12.3897 101.235 54.0299C100.063 70.5111 93.122 81.4925 85.1567 88.748C70.008 102.545 47.8415 105.449 29.4059 96.5809C17.4729 90.8431 5.71155 79.4569 2.58468 57.006C-4.32643 7.43164 52.3127 26.3948 52.3127 26.3948Z" fill="white" stroke="black" stroke-width="4" stroke-miterlimit="10" stroke-linecap="round" stroke-linejoin="round"/>
<path d="M70.9792 82.3973C70.9792 82.3973 53.272 95.581 52.6147 116.675C52.6147 116.675 55.2382 125.901 67.6983 120.627C67.6983 120.627 70.9792 101.509 84.0967 94.9203C84.0967 94.9203 96.9121 118.472 121.809 105.14C121.809 105.14 131.32 100.854 133.286 84.3793C133.286 84.3793 157.549 73.8323 150.336 48.1256C150.336 48.1256 162.138 25.0556 141.808 15.1693C141.808 15.1693 129.543 9.89581 118.297 15.1693C118.297 15.1693 95.8994 1.32491 82.1305 30.3291C82.1305 30.3291 54.5868 33.6265 57.2102 58.6725C57.2043 58.6666 57.2043 75.1418 70.9792 82.3973Z" fill="white" stroke="black" stroke-width="4" stroke-miterlimit="10" stroke-linecap="round" stroke-linejoin="round"/>
<path d="M88.0289 75.1418C88.0289 75.1418 101.146 55.0359 127.381 34.9359L88.0289 75.1418Z" fill="white"/>
<path d="M88.0289 75.1418C88.0289 75.1418 101.146 55.0359 127.381 34.9359" stroke="black" stroke-width="4" stroke-miterlimit="10" stroke-linecap="round" stroke-linejoin="round"/>
<path d="M74.9114 45.4829L82.7819 58.6666" stroke="black" stroke-width="4" stroke-miterlimit="10" stroke-linecap="round" stroke-linejoin="round"/>
<path d="M101.146 23.7283L108.034 35.6918" stroke="black" stroke-width="4" stroke-miterlimit="10" stroke-linecap="round" stroke-linejoin="round"/>
<path d="M124.101 54.7085L136.561 62.6187" stroke="black" stroke-width="4" stroke-miterlimit="10" stroke-linecap="round" stroke-linejoin="round"/>
<path d="M100.169 80.0165L115.253 89.2421" stroke="black" stroke-width="4" stroke-miterlimit="10" stroke-linecap="round" stroke-linejoin="round"/>
</svg>
