<svg width="148" height="88" viewBox="0 0 148 88" fill="none" xmlns="http://www.w3.org/2000/svg">
<path d="M34.4744 54.8917C32.0721 52.2718 31.8893 48.3377 34.0218 45.4915C40.541 36.8224 56.678 19.4407 82.076 18.1438C112.984 16.5597 134.508 29.4067 144.683 44.1946C146.494 46.8319 146.441 50.3222 144.501 52.8637C138.242 61.0541 121.096 78.2008 87.2984 78.2008C59.4546 78.2008 41.7247 62.7862 34.4744 54.8917Z" fill="white" stroke="black" stroke-width="4" stroke-miterlimit="10" stroke-linecap="round" stroke-linejoin="round"/>
<path d="M117.953 23.6445C117.953 23.6445 94.3398 43.9159 119.538 71.9425L117.953 23.6445Z" fill="white"/>
<path d="M117.953 23.6445C117.953 23.6445 94.3398 43.9159 119.538 71.9425" stroke="black" stroke-width="4" stroke-miterlimit="10" stroke-linecap="round" stroke-linejoin="round"/>
<path d="M99.4839 28.5884C99.4839 28.5884 96.0023 32.9403 96.0023 39.9035L99.4839 28.5884Z" fill="white"/>
<path d="M99.4839 28.5884C99.4839 28.5884 96.0023 32.9403 96.0023 39.9035" stroke="black" stroke-width="4" stroke-miterlimit="10" stroke-linecap="round" stroke-linejoin="round"/>
<path d="M96.0023 50.2524C96.0023 50.2524 96.0023 57.3113 103.836 66.0152L96.0023 50.2524Z" fill="white"/>
<path d="M96.0023 50.2524C96.0023 50.2524 96.0023 57.3113 103.836 66.0152" stroke="black" stroke-width="4" stroke-miterlimit="10" stroke-linecap="round" stroke-linejoin="round"/>
<path d="M128.207 44.2554C128.687 44.2554 129.077 43.8657 129.077 43.385C129.077 42.9043 128.687 42.5146 128.207 42.5146C127.726 42.5146 127.336 42.9043 127.336 43.385C127.336 43.8657 127.726 44.2554 128.207 44.2554Z" fill="white" stroke="black" stroke-width="4" stroke-miterlimit="10" stroke-linecap="round" stroke-linejoin="round"/>
<path d="M64.7987 18.7617L62.5444 5.41859C62.3007 3.97374 63.5976 2.72908 65.0337 3.05112C70.5607 4.30448 82.3981 7.91661 88.5952 16.7772" fill="white"/>
<path d="M64.7987 18.7617L62.5444 5.41859C62.3007 3.97374 63.5976 2.72908 65.0337 3.05112C70.5607 4.30448 82.3981 7.91661 88.5952 16.7772" stroke="black" stroke-width="4" stroke-miterlimit="10" stroke-linecap="round" stroke-linejoin="round"/>
<path d="M66.6962 76.8953L67.9321 85.2162C67.9321 85.2162 75.3479 87.6446 84.2781 78.5403" fill="white"/>
<path d="M66.6962 76.8953L67.9321 85.2162C67.9321 85.2162 75.3479 87.6446 84.2781 78.5403" stroke="black" stroke-width="4" stroke-miterlimit="10" stroke-linecap="round" stroke-linejoin="round"/>
<path d="M2 31.0516C2 31.0516 10.3296 26.8128 18.1458 31.3997C25.9532 35.978 28.7036 42.7757 28.2162 47.7283C28.2162 47.7283 20.4001 52.0193 10.5211 45.5262C2.18278 40.0514 2 31.0516 2 31.0516Z" fill="white" stroke="black" stroke-width="4" stroke-miterlimit="10" stroke-linecap="round" stroke-linejoin="round"/>
<path d="M27.9289 49.382C27.9289 49.382 30.0614 58.4776 23.7597 64.9795C17.4581 71.4813 10.199 72.5345 5.49892 70.8894C5.49892 70.8894 3.18368 62.2726 11.8354 54.2214C19.138 47.4324 27.9289 49.382 27.9289 49.382Z" fill="white" stroke="black" stroke-width="4" stroke-miterlimit="10" stroke-linecap="round" stroke-linejoin="round"/>
</svg>
