<svg width="87" height="17" viewBox="0 0 87 17" fill="none" xmlns="http://www.w3.org/2000/svg">
<path d="M0.889364 16.3773C0.760475 16.3773 0.650919 16.3386 0.560697 16.2613C0.483364 16.1839 0.444697 16.0744 0.444697 15.9326V12.3946C0.444697 12.2657 0.483364 12.1626 0.560697 12.0853C0.650919 11.9951 0.760475 11.9499 0.889364 11.9499H1.29536C2.54559 11.9499 3.1707 9.55261 3.1707 4.75794V0.601275C3.1707 0.472386 3.20936 0.369275 3.2867 0.291942C3.37692 0.201719 3.48647 0.156608 3.61536 0.156608H11.1554C11.2971 0.156608 11.4067 0.201719 11.484 0.291942C11.5743 0.369275 11.6194 0.47883 11.6194 0.620608V11.9499H12.5667C12.6956 11.9499 12.8051 11.9951 12.8954 12.0853C12.9856 12.1626 13.0307 12.2657 13.0307 12.3946V15.9326C13.0307 16.0615 12.9856 16.1646 12.8954 16.2419C12.818 16.3322 12.7085 16.3773 12.5667 16.3773H11.5807C11.4518 16.3773 11.3423 16.3386 11.252 16.2613C11.1747 16.1839 11.136 16.0744 11.136 15.9326V13.6899H2.33936V15.9326C2.33936 16.0615 2.29425 16.1646 2.20403 16.2419C2.1267 16.3322 2.01714 16.3773 1.87536 16.3773H0.889364ZM9.7247 11.9499V1.89661H5.0267V5.00927C5.0267 6.82661 4.92359 8.29594 4.71736 9.41727C4.51114 10.5386 4.19536 11.3828 3.77003 11.9499H9.7247ZM19.2368 13.8833C17.8191 13.8833 16.7171 13.4837 15.9308 12.6846C15.1575 11.8855 14.7451 10.8222 14.6935 9.49461L14.6742 8.66327L14.6935 7.83194C14.7451 6.51727 15.164 5.46039 15.9502 4.66128C16.7364 3.84927 17.832 3.44327 19.2368 3.44327C20.6417 3.44327 21.7373 3.84927 22.5235 4.66128C23.3097 5.46039 23.7286 6.51727 23.7802 7.83194C23.7931 7.97372 23.7995 8.25083 23.7995 8.66327C23.7995 9.07572 23.7931 9.35283 23.7802 9.49461C23.7286 10.8222 23.3097 11.8855 22.5235 12.6846C21.7502 13.4837 20.6546 13.8833 19.2368 13.8833ZM19.2368 12.3946C20.0488 12.3946 20.6868 12.1368 21.1508 11.6213C21.6277 11.1057 21.8855 10.3646 21.9242 9.39794C21.9371 9.26905 21.9435 9.02416 21.9435 8.66327C21.9435 8.30239 21.9371 8.0575 21.9242 7.92861C21.8855 6.96194 21.6277 6.22083 21.1508 5.70527C20.6868 5.18972 20.0488 4.93194 19.2368 4.93194C18.4248 4.93194 17.7804 5.18972 17.3035 5.70527C16.8266 6.22083 16.5753 6.96194 16.5495 7.92861L16.5302 8.66327L16.5495 9.39794C16.5753 10.3646 16.8266 11.1057 17.3035 11.6213C17.7804 12.1368 18.4248 12.3946 19.2368 12.3946ZM30.2804 13.8833C28.9013 13.8833 27.8186 13.4966 27.0324 12.7233C26.2591 11.9371 25.8466 10.8415 25.7951 9.43661L25.7757 8.66327L25.7951 7.88994C25.8466 6.48505 26.2591 5.39594 27.0324 4.62261C27.8186 3.83639 28.9013 3.44327 30.2804 3.44327C31.2084 3.44327 31.9946 3.61083 32.6391 3.94594C33.2835 4.28105 33.7604 4.6935 34.0697 5.18327C34.392 5.67305 34.566 6.16283 34.5917 6.65261C34.6046 6.7815 34.566 6.88461 34.4757 6.96194C34.3855 7.03927 34.276 7.07794 34.1471 7.07794H33.2191C33.0902 7.07794 32.9935 7.05216 32.9291 7.00061C32.8646 6.94905 32.8002 6.84594 32.7357 6.69127C32.5166 6.07261 32.2073 5.63439 31.8077 5.37661C31.4082 5.10594 30.9055 4.97061 30.2997 4.97061C29.5006 4.97061 28.8626 5.22194 28.3857 5.72461C27.9217 6.21439 27.6704 6.96839 27.6317 7.98661L27.6124 8.68261L27.6317 9.33994C27.6704 10.3711 27.9217 11.1315 28.3857 11.6213C28.8497 12.1111 29.4877 12.3559 30.2997 12.3559C30.9055 12.3559 31.4082 12.2271 31.8077 11.9693C32.2073 11.6986 32.5166 11.2539 32.7357 10.6353C32.8002 10.4806 32.8646 10.3775 32.9291 10.3259C32.9935 10.2615 33.0902 10.2293 33.2191 10.2293H34.1471C34.276 10.2293 34.3855 10.2744 34.4757 10.3646C34.566 10.4419 34.6046 10.5451 34.5917 10.6739C34.566 11.1508 34.392 11.6406 34.0697 12.1433C33.7604 12.6331 33.2835 13.0455 32.6391 13.3806C32.0075 13.7157 31.2213 13.8833 30.2804 13.8833ZM39.9617 13.6899C39.8328 13.6899 39.7233 13.6513 39.6331 13.5739C39.5557 13.4837 39.5171 13.3742 39.5171 13.2453V5.18327H36.1531C36.0242 5.18327 35.9146 5.14461 35.8244 5.06728C35.7471 4.97705 35.7084 4.8675 35.7084 4.73861V4.08128C35.7084 3.95239 35.7471 3.84927 35.8244 3.77194C35.9146 3.68172 36.0242 3.63661 36.1531 3.63661H44.6597C44.7886 3.63661 44.8917 3.68172 44.9691 3.77194C45.0593 3.84927 45.1044 3.95239 45.1044 4.08128V4.73861C45.1044 4.8675 45.0593 4.97705 44.9691 5.06728C44.8917 5.14461 44.7886 5.18327 44.6597 5.18327H41.2957V13.2453C41.2957 13.3742 41.2571 13.4837 41.1797 13.5739C41.1024 13.6513 40.9993 13.6899 40.8704 13.6899H39.9617ZM49.5843 13.8833C48.9527 13.8833 48.3663 13.7544 47.825 13.4966C47.2836 13.2388 46.8518 12.8908 46.5296 12.4526C46.2203 12.0015 46.0656 11.5053 46.0656 10.9639C46.0656 10.1133 46.4136 9.41727 47.1096 8.87594C47.8185 8.32172 48.7723 7.96083 49.971 7.79327L52.8516 7.38728V6.82661C52.8516 5.51194 52.0976 4.85461 50.5896 4.85461C50.0225 4.85461 49.5585 4.97705 49.1976 5.22194C48.8367 5.45394 48.5661 5.73105 48.3856 6.05328C48.347 6.16928 48.2954 6.25305 48.231 6.30461C48.1794 6.35616 48.1021 6.38194 47.999 6.38194H47.1676C47.0516 6.38194 46.9485 6.34327 46.8583 6.26594C46.781 6.17572 46.7423 6.07261 46.7423 5.95661C46.7552 5.64727 46.897 5.29927 47.1676 4.91261C47.4512 4.51305 47.883 4.1715 48.463 3.88794C49.043 3.5915 49.7583 3.44327 50.609 3.44327C52.0525 3.44327 53.0901 3.78483 53.7216 4.46794C54.3532 5.13816 54.669 5.97594 54.669 6.98128V13.2453C54.669 13.3742 54.6238 13.4837 54.5336 13.5739C54.4563 13.6513 54.3532 13.6899 54.2243 13.6899H53.335C53.2061 13.6899 53.0965 13.6513 53.0063 13.5739C52.929 13.4837 52.8903 13.3742 52.8903 13.2453V12.4139C52.6067 12.8264 52.1943 13.1744 51.653 13.4579C51.1116 13.7415 50.4221 13.8833 49.5843 13.8833ZM49.9903 12.4333C50.8281 12.4333 51.5112 12.1626 52.0396 11.6213C52.581 11.0671 52.8516 10.2744 52.8516 9.24327V8.70194L50.609 9.03061C49.6938 9.1595 49.0043 9.37861 48.5403 9.68794C48.0763 9.98439 47.8443 10.3646 47.8443 10.8286C47.8443 11.3442 48.057 11.7437 48.4823 12.0273C48.9076 12.2979 49.4103 12.4333 49.9903 12.4333ZM57.8929 13.6899C57.764 13.6899 57.6545 13.6513 57.5643 13.5739C57.4869 13.4837 57.4483 13.3742 57.4483 13.2453V4.08128C57.4483 3.95239 57.4869 3.84927 57.5643 3.77194C57.6545 3.68172 57.764 3.63661 57.8929 3.63661H61.9143C63.1 3.63661 64.0023 3.8815 64.6209 4.37127C65.2525 4.84816 65.5683 5.5055 65.5683 6.34327C65.5683 6.8975 65.4652 7.32927 65.2589 7.63861C65.0527 7.93505 64.7369 8.19283 64.3116 8.41194C64.7756 8.60527 65.1365 8.9275 65.3943 9.37861C65.6649 9.82972 65.8003 10.3131 65.8003 10.8286C65.8003 11.7566 65.4716 12.4655 64.8143 12.9553C64.1698 13.4451 63.2547 13.6899 62.0689 13.6899H57.8929ZM61.7983 7.90927C62.4298 7.90927 62.926 7.77394 63.2869 7.50327C63.6478 7.23261 63.8283 6.85239 63.8283 6.36261C63.8283 5.88572 63.6543 5.55061 63.3063 5.35727C62.9583 5.15105 62.4556 5.04794 61.7983 5.04794H59.2269V7.90927H61.7983ZM61.9143 12.2786C62.5587 12.2786 63.0614 12.1562 63.4223 11.9113C63.796 11.6664 63.9829 11.3055 63.9829 10.8286C63.9829 10.3131 63.8154 9.93927 63.4803 9.70727C63.1452 9.46239 62.6232 9.33994 61.9143 9.33994H59.2269V12.2786H61.9143ZM76.6762 13.1293C76.7406 13.2066 76.7728 13.2904 76.7728 13.3806C76.7728 13.4708 76.7342 13.5482 76.6568 13.6126C76.5924 13.6642 76.5022 13.6899 76.3862 13.6899H75.2068C75.0006 13.6899 74.8331 13.5933 74.7042 13.3999L71.9008 9.35927H70.0835V13.2453C70.0835 13.3742 70.0384 13.4837 69.9482 13.5739C69.8708 13.6513 69.7677 13.6899 69.6388 13.6899H68.7302C68.6013 13.6899 68.4917 13.6513 68.4015 13.5739C68.3242 13.4837 68.2855 13.3742 68.2855 13.2453V4.08128C68.2855 3.95239 68.3242 3.84927 68.4015 3.77194C68.4917 3.68172 68.6013 3.63661 68.7302 3.63661H69.6388C69.7677 3.63661 69.8708 3.68172 69.9482 3.77194C70.0384 3.84927 70.0835 3.95239 70.0835 4.08128V7.79327H71.8622L74.4528 3.92661C74.6075 3.73327 74.7815 3.63661 74.9748 3.63661H75.9802C76.0962 3.63661 76.1928 3.66883 76.2702 3.73327C76.3475 3.78483 76.3862 3.85572 76.3862 3.94594C76.3862 4.01039 76.354 4.08772 76.2895 4.17794L73.4088 8.45061L76.6762 13.1293ZM81.4541 13.8833C80.8225 13.8833 80.2361 13.7544 79.6947 13.4966C79.1534 13.2388 78.7216 12.8908 78.3994 12.4526C78.0901 12.0015 77.9354 11.5053 77.9354 10.9639C77.9354 10.1133 78.2834 9.41727 78.9794 8.87594C79.6883 8.32172 80.6421 7.96083 81.8407 7.79327L84.7214 7.38728V6.82661C84.7214 5.51194 83.9674 4.85461 82.4594 4.85461C81.8923 4.85461 81.4283 4.97705 81.0674 5.22194C80.7065 5.45394 80.4359 5.73105 80.2554 6.05328C80.2167 6.16928 80.1652 6.25305 80.1007 6.30461C80.0492 6.35616 79.9719 6.38194 79.8687 6.38194H79.0374C78.9214 6.38194 78.8183 6.34327 78.7281 6.26594C78.6507 6.17572 78.6121 6.07261 78.6121 5.95661C78.625 5.64727 78.7667 5.29927 79.0374 4.91261C79.321 4.51305 79.7527 4.1715 80.3327 3.88794C80.9127 3.5915 81.6281 3.44327 82.4787 3.44327C83.9223 3.44327 84.9599 3.78483 85.5914 4.46794C86.223 5.13816 86.5387 5.97594 86.5387 6.98128V13.2453C86.5387 13.3742 86.4936 13.4837 86.4034 13.5739C86.3261 13.6513 86.223 13.6899 86.0941 13.6899H85.2047C85.0759 13.6899 84.9663 13.6513 84.8761 13.5739C84.7987 13.4837 84.7601 13.3742 84.7601 13.2453V12.4139C84.4765 12.8264 84.0641 13.1744 83.5227 13.4579C82.9814 13.7415 82.2919 13.8833 81.4541 13.8833ZM81.8601 12.4333C82.6979 12.4333 83.381 12.1626 83.9094 11.6213C84.4507 11.0671 84.7214 10.2744 84.7214 9.24327V8.70194L82.4787 9.03061C81.5636 9.1595 80.8741 9.37861 80.4101 9.68794C79.9461 9.98439 79.7141 10.3646 79.7141 10.8286C79.7141 11.3442 79.9267 11.7437 80.3521 12.0273C80.7774 12.2979 81.2801 12.4333 81.8601 12.4333Z" fill="black"/>
</svg>
