<svg width="401" height="639" viewBox="0 0 401 639" fill="none" xmlns="http://www.w3.org/2000/svg">
<g opacity="0.8">
<ellipse rx="8.29913" ry="8.00984" transform="matrix(-1 0 0 1 379.319 27.2214)" fill="#EBEBEB" fill-opacity="0.5"/>
<ellipse rx="8.29913" ry="8.00984" transform="matrix(-1 0 0 1 379.319 71.5111)" fill="#EBEBEB" fill-opacity="0.5"/>
<ellipse rx="8.29913" ry="7.53867" transform="matrix(-1 0 0 1 379.319 115.33)" fill="#EBEBEB" fill-opacity="0.5"/>
<ellipse rx="8.29913" ry="8.00984" transform="matrix(-1 0 0 1 379.319 159.148)" fill="#EBEBEB" fill-opacity="0.5"/>
<ellipse rx="8.29913" ry="8.00984" transform="matrix(-1 0 0 1 379.319 203.438)" fill="#EBEBEB" fill-opacity="0.5"/>
<ellipse rx="8.29913" ry="7.53867" transform="matrix(-1 0 0 1 379.319 247.256)" fill="#EBEBEB" fill-opacity="0.5"/>
<ellipse rx="8.29913" ry="8.00984" transform="matrix(-1 0 0 1 379.319 291.075)" fill="#EBEBEB" fill-opacity="0.5"/>
<ellipse rx="8.29913" ry="8.00984" transform="matrix(-1 0 0 1 379.319 335.365)" fill="#EBEBEB" fill-opacity="0.5"/>
<ellipse rx="8.29913" ry="8.00984" transform="matrix(-1 0 0 1 379.319 379.654)" fill="#EBEBEB" fill-opacity="0.5"/>
<ellipse rx="8.29913" ry="8.00984" transform="matrix(-1 0 0 1 379.319 423.944)" fill="#EBEBEB" fill-opacity="0.5"/>
<ellipse rx="8.29913" ry="8.00984" transform="matrix(-1 0 0 1 379.319 468.233)" fill="#EBEBEB" fill-opacity="0.5"/>
<ellipse rx="8.29913" ry="7.53867" transform="matrix(-1 0 0 1 379.319 512.052)" fill="#EBEBEB" fill-opacity="0.5"/>
<ellipse rx="8.29913" ry="8.00984" transform="matrix(-1 0 0 1 379.319 555.871)" fill="#EBEBEB" fill-opacity="0.5"/>
<ellipse rx="8.29913" ry="8.00984" transform="matrix(-1 0 0 1 379.319 600.16)" fill="#EBEBEB" fill-opacity="0.5"/>
<ellipse cx="327.572" cy="9.3171" rx="9.2755" ry="8.95217" fill="#EBEBEB" fill-opacity="0.5"/>
<ellipse cx="327.572" cy="53.6068" rx="9.2755" ry="8.95217" fill="#EBEBEB" fill-opacity="0.5"/>
<ellipse cx="327.572" cy="97.8964" rx="9.2755" ry="8.95217" fill="#EBEBEB" fill-opacity="0.5"/>
<ellipse cx="327.572" cy="142.186" rx="9.2755" ry="8.95217" fill="#EBEBEB" fill-opacity="0.5"/>
<ellipse cx="327.572" cy="186.476" rx="9.2755" ry="8.95217" fill="#EBEBEB" fill-opacity="0.5"/>
<ellipse cx="327.572" cy="230.765" rx="9.2755" ry="8.95217" fill="#EBEBEB" fill-opacity="0.5"/>
<ellipse cx="327.572" cy="275.055" rx="9.2755" ry="8.95217" fill="#EBEBEB" fill-opacity="0.5"/>
<ellipse cx="327.572" cy="319.345" rx="9.2755" ry="8.95217" fill="#EBEBEB" fill-opacity="0.5"/>
<ellipse cx="327.572" cy="363.635" rx="9.2755" ry="8.95217" fill="#EBEBEB" fill-opacity="0.5"/>
<ellipse cx="327.572" cy="407.924" rx="9.2755" ry="8.95217" fill="#EBEBEB" fill-opacity="0.5"/>
<ellipse cx="327.572" cy="452.214" rx="9.2755" ry="8.95217" fill="#EBEBEB" fill-opacity="0.5"/>
<ellipse cx="327.572" cy="496.504" rx="9.2755" ry="8.95217" fill="#EBEBEB" fill-opacity="0.5"/>
<ellipse cx="327.572" cy="540.793" rx="9.2755" ry="8.95217" fill="#EBEBEB" fill-opacity="0.5"/>
<ellipse cx="327.572" cy="585.083" rx="9.2755" ry="8.95217" fill="#EBEBEB" fill-opacity="0.5"/>
<ellipse cx="327.572" cy="629.373" rx="9.2755" ry="8.95217" fill="#EBEBEB" fill-opacity="0.5"/>
<ellipse opacity="0.3" rx="8.29913" ry="8.00984" transform="matrix(-1 0 0 1 283.635 27.2214)" fill="#EBEBEB" fill-opacity="0.5"/>
<ellipse opacity="0.5" rx="8.29913" ry="8.00984" transform="matrix(-1 0 0 1 283.635 71.5111)" fill="#EBEBEB"/>
<ellipse opacity="0.5" rx="8.29913" ry="7.53867" transform="matrix(-1 0 0 1 283.635 115.33)" fill="#EBEBEB"/>
<ellipse opacity="0.5" rx="8.29913" ry="8.00984" transform="matrix(-1 0 0 1 283.635 159.148)" fill="#EBEBEB"/>
<ellipse opacity="0.5" rx="8.29913" ry="8.00984" transform="matrix(-1 0 0 1 283.635 203.438)" fill="#EBEBEB"/>
<ellipse opacity="0.5" rx="8.29913" ry="7.53867" transform="matrix(-1 0 0 1 283.635 247.256)" fill="#EBEBEB"/>
<ellipse opacity="0.5" rx="8.29913" ry="8.00984" transform="matrix(-1 0 0 1 283.635 291.075)" fill="#EBEBEB"/>
<ellipse opacity="0.5" rx="8.29913" ry="8.00984" transform="matrix(-1 0 0 1 283.635 335.365)" fill="#EBEBEB"/>
<ellipse opacity="0.5" rx="8.29913" ry="8.00984" transform="matrix(-1 0 0 1 283.635 379.654)" fill="#EBEBEB"/>
<ellipse opacity="0.5" rx="8.29913" ry="8.00984" transform="matrix(-1 0 0 1 283.635 423.944)" fill="#EBEBEB"/>
<ellipse opacity="0.5" rx="8.29913" ry="8.00984" transform="matrix(-1 0 0 1 283.635 468.233)" fill="#EBEBEB"/>
<ellipse opacity="0.5" rx="8.29913" ry="7.53867" transform="matrix(-1 0 0 1 283.635 512.052)" fill="#EBEBEB"/>
<ellipse opacity="0.5" rx="8.29913" ry="8.00984" transform="matrix(-1 0 0 1 283.635 555.871)" fill="#EBEBEB"/>
<ellipse opacity="0.3" rx="8.29913" ry="8.00984" transform="matrix(-1 0 0 1 283.635 600.16)" fill="#EBEBEB"/>
<ellipse opacity="0.4" cx="235.793" cy="9.3171" rx="9.2755" ry="8.95217" fill="#EBEBEB"/>
<ellipse opacity="0.4" cx="235.793" cy="53.6068" rx="9.2755" ry="8.95217" fill="#EBEBEB"/>
<ellipse opacity="0.4" cx="235.793" cy="97.8964" rx="9.2755" ry="8.95217" fill="#EBEBEB"/>
<ellipse opacity="0.4" cx="235.793" cy="142.186" rx="9.2755" ry="8.95217" fill="#EBEBEB"/>
<ellipse opacity="0.4" cx="235.793" cy="186.476" rx="9.2755" ry="8.95217" fill="#EBEBEB"/>
<ellipse opacity="0.4" cx="235.793" cy="230.765" rx="9.2755" ry="8.95217" fill="#EBEBEB"/>
<ellipse opacity="0.4" cx="235.793" cy="275.055" rx="9.2755" ry="8.95217" fill="#EBEBEB"/>
<ellipse opacity="0.4" cx="235.793" cy="319.345" rx="9.2755" ry="8.95217" fill="#EBEBEB"/>
<ellipse opacity="0.4" cx="235.793" cy="363.635" rx="9.2755" ry="8.95217" fill="#EBEBEB"/>
<ellipse opacity="0.4" cx="235.793" cy="407.924" rx="9.2755" ry="8.95217" fill="#EBEBEB"/>
<ellipse opacity="0.4" cx="235.793" cy="452.214" rx="9.2755" ry="8.95217" fill="#EBEBEB"/>
<ellipse opacity="0.4" cx="235.793" cy="496.504" rx="9.2755" ry="8.95217" fill="#EBEBEB"/>
<ellipse opacity="0.4" cx="235.793" cy="540.793" rx="9.2755" ry="8.95217" fill="#EBEBEB"/>
<ellipse opacity="0.4" cx="235.793" cy="585.083" rx="9.2755" ry="8.95217" fill="#EBEBEB"/>
<ellipse opacity="0.4" cx="235.793" cy="629.373" rx="9.2755" ry="8.95217" fill="#EBEBEB"/>
<ellipse opacity="0.4" rx="8.29913" ry="8.00984" transform="matrix(-1 0 0 1 191.857 27.2214)" fill="#EBEBEB"/>
<ellipse opacity="0.4" rx="8.29913" ry="8.00984" transform="matrix(-1 0 0 1 191.857 71.5111)" fill="#EBEBEB"/>
<ellipse opacity="0.4" rx="8.29913" ry="7.53867" transform="matrix(-1 0 0 1 191.857 115.33)" fill="#EBEBEB"/>
<ellipse opacity="0.4" rx="8.29913" ry="8.00984" transform="matrix(-1 0 0 1 191.857 159.148)" fill="#EBEBEB"/>
<ellipse opacity="0.4" rx="8.29913" ry="8.00984" transform="matrix(-1 0 0 1 191.857 203.438)" fill="#EBEBEB"/>
<ellipse opacity="0.4" rx="8.29913" ry="7.53867" transform="matrix(-1 0 0 1 191.857 247.256)" fill="#EBEBEB"/>
<ellipse opacity="0.4" rx="8.29913" ry="8.00984" transform="matrix(-1 0 0 1 191.857 291.075)" fill="#EBEBEB"/>
<ellipse opacity="0.4" rx="8.29913" ry="8.00984" transform="matrix(-1 0 0 1 191.857 335.365)" fill="#EBEBEB"/>
<ellipse opacity="0.4" rx="8.29913" ry="8.00984" transform="matrix(-1 0 0 1 191.857 379.654)" fill="#EBEBEB"/>
<ellipse opacity="0.4" rx="8.29913" ry="8.00984" transform="matrix(-1 0 0 1 191.857 423.944)" fill="#EBEBEB"/>
<ellipse opacity="0.4" rx="8.29913" ry="8.00984" transform="matrix(-1 0 0 1 191.857 468.233)" fill="#EBEBEB"/>
<ellipse opacity="0.4" rx="8.29913" ry="7.53867" transform="matrix(-1 0 0 1 191.857 512.052)" fill="#EBEBEB"/>
<ellipse opacity="0.4" rx="8.29913" ry="8.00984" transform="matrix(-1 0 0 1 191.857 555.871)" fill="#EBEBEB"/>
<ellipse opacity="0.4" rx="8.29913" ry="8.00984" transform="matrix(-1 0 0 1 191.857 600.16)" fill="#EBEBEB"/>
<ellipse opacity="0.2" cx="140.109" cy="9.3171" rx="9.2755" ry="8.95217" fill="#EBEBEB"/>
<ellipse opacity="0.2" cx="140.109" cy="53.6068" rx="9.2755" ry="8.95217" fill="#EBEBEB"/>
<ellipse opacity="0.2" cx="140.109" cy="97.8964" rx="9.2755" ry="8.95217" fill="#EBEBEB"/>
<ellipse opacity="0.2" cx="140.109" cy="142.186" rx="9.2755" ry="8.95217" fill="#EBEBEB"/>
<ellipse opacity="0.2" cx="140.109" cy="186.476" rx="9.2755" ry="8.95217" fill="#EBEBEB"/>
<ellipse opacity="0.2" cx="140.109" cy="230.765" rx="9.2755" ry="8.95217" fill="#EBEBEB"/>
<ellipse opacity="0.2" cx="140.109" cy="275.055" rx="9.2755" ry="8.95217" fill="#EBEBEB"/>
<ellipse opacity="0.2" cx="140.109" cy="319.345" rx="9.2755" ry="8.95217" fill="#EBEBEB"/>
<ellipse opacity="0.2" cx="140.109" cy="363.635" rx="9.2755" ry="8.95217" fill="#EBEBEB"/>
<ellipse opacity="0.2" cx="140.109" cy="407.924" rx="9.2755" ry="8.95217" fill="#EBEBEB"/>
<ellipse opacity="0.2" cx="140.109" cy="452.214" rx="9.2755" ry="8.95217" fill="#EBEBEB"/>
<ellipse opacity="0.2" cx="140.109" cy="496.504" rx="9.2755" ry="8.95217" fill="#EBEBEB"/>
<ellipse opacity="0.2" cx="140.109" cy="540.793" rx="9.2755" ry="8.95217" fill="#EBEBEB"/>
<ellipse opacity="0.2" cx="140.109" cy="585.083" rx="9.2755" ry="8.95217" fill="#EBEBEB"/>
<ellipse opacity="0.2" cx="140.109" cy="629.373" rx="9.2755" ry="8.95217" fill="#EBEBEB"/>
<ellipse opacity="0.2" rx="8.29913" ry="8.00984" transform="matrix(-1 0 0 1 96.1724 27.2214)" fill="#EBEBEB"/>
<ellipse opacity="0.2" rx="8.29913" ry="8.00984" transform="matrix(-1 0 0 1 96.1724 71.5111)" fill="#EBEBEB"/>
<ellipse opacity="0.2" rx="8.29913" ry="7.53867" transform="matrix(-1 0 0 1 96.1724 115.33)" fill="#EBEBEB"/>
<ellipse opacity="0.2" rx="8.29913" ry="8.00984" transform="matrix(-1 0 0 1 96.1724 159.148)" fill="#EBEBEB"/>
<ellipse opacity="0.2" rx="8.29913" ry="8.00984" transform="matrix(-1 0 0 1 96.1724 203.438)" fill="#EBEBEB"/>
<ellipse opacity="0.2" rx="8.29913" ry="7.53867" transform="matrix(-1 0 0 1 96.1724 247.256)" fill="#EBEBEB"/>
<ellipse opacity="0.2" rx="8.29913" ry="8.00984" transform="matrix(-1 0 0 1 96.1724 291.075)" fill="#EBEBEB"/>
<ellipse opacity="0.2" rx="8.29913" ry="8.00984" transform="matrix(-1 0 0 1 96.1724 335.365)" fill="#EBEBEB"/>
<ellipse opacity="0.2" rx="8.29913" ry="8.00984" transform="matrix(-1 0 0 1 96.1724 379.654)" fill="#EBEBEB"/>
<ellipse opacity="0.2" rx="8.29913" ry="8.00984" transform="matrix(-1 0 0 1 96.1724 423.944)" fill="#EBEBEB"/>
<ellipse opacity="0.2" rx="8.29913" ry="8.00984" transform="matrix(-1 0 0 1 96.1724 468.233)" fill="#EBEBEB"/>
<ellipse opacity="0.2" rx="8.29913" ry="7.53867" transform="matrix(-1 0 0 1 96.1724 512.052)" fill="#EBEBEB"/>
<ellipse opacity="0.2" rx="8.29913" ry="8.00984" transform="matrix(-1 0 0 1 96.1724 555.871)" fill="#EBEBEB"/>
<ellipse opacity="0.2" rx="8.29913" ry="8.00984" transform="matrix(-1 0 0 1 96.1724 600.16)" fill="#EBEBEB"/>
<ellipse opacity="0.2" cx="52.2358" cy="9.3171" rx="9.2755" ry="8.95217" fill="#EBEBEB"/>
<ellipse opacity="0.2" cx="52.2358" cy="53.6068" rx="9.2755" ry="8.95217" fill="#EBEBEB"/>
<ellipse opacity="0.2" cx="52.2358" cy="97.8964" rx="9.2755" ry="8.95217" fill="#EBEBEB"/>
<ellipse opacity="0.2" cx="52.2358" cy="142.186" rx="9.2755" ry="8.95217" fill="#EBEBEB"/>
<ellipse opacity="0.2" cx="52.2358" cy="186.476" rx="9.2755" ry="8.95217" fill="#EBEBEB"/>
<ellipse opacity="0.2" cx="52.2358" cy="230.765" rx="9.2755" ry="8.95217" fill="#EBEBEB"/>
<ellipse opacity="0.2" cx="52.2358" cy="275.055" rx="9.2755" ry="8.95217" fill="#EBEBEB"/>
<ellipse opacity="0.2" cx="52.2358" cy="319.345" rx="9.2755" ry="8.95217" fill="#EBEBEB"/>
<ellipse opacity="0.2" cx="52.2358" cy="363.635" rx="9.2755" ry="8.95217" fill="#EBEBEB"/>
<ellipse opacity="0.2" cx="52.2358" cy="407.924" rx="9.2755" ry="8.95217" fill="#EBEBEB"/>
<ellipse opacity="0.2" cx="52.2358" cy="452.214" rx="9.2755" ry="8.95217" fill="#EBEBEB"/>
<ellipse opacity="0.2" cx="52.2358" cy="496.504" rx="9.2755" ry="8.95217" fill="#EBEBEB"/>
<ellipse opacity="0.2" cx="52.2358" cy="540.793" rx="9.2755" ry="8.95217" fill="#EBEBEB"/>
<ellipse opacity="0.2" cx="52.2358" cy="585.083" rx="9.2755" ry="8.95217" fill="#EBEBEB"/>
<ellipse opacity="0.2" cx="52.2358" cy="629.373" rx="9.2755" ry="8.95217" fill="#EBEBEB"/>
<ellipse opacity="0.2" rx="8.29913" ry="8.00984" transform="matrix(-1 0 0 1 8.29926 27.2214)" fill="#EBEBEB"/>
<ellipse opacity="0.2" rx="8.29913" ry="8.00984" transform="matrix(-1 0 0 1 8.29926 71.5111)" fill="#EBEBEB"/>
<ellipse opacity="0.2" rx="8.29913" ry="7.53867" transform="matrix(-1 0 0 1 8.29926 115.33)" fill="#EBEBEB"/>
<ellipse opacity="0.2" rx="8.29913" ry="8.00984" transform="matrix(-1 0 0 1 8.29926 159.148)" fill="#EBEBEB"/>
<ellipse opacity="0.2" rx="8.29913" ry="8.00984" transform="matrix(-1 0 0 1 8.29926 203.438)" fill="#EBEBEB"/>
<ellipse opacity="0.2" rx="8.29913" ry="7.53867" transform="matrix(-1 0 0 1 8.29926 247.256)" fill="#EBEBEB"/>
<ellipse opacity="0.2" rx="8.29913" ry="8.00984" transform="matrix(-1 0 0 1 8.29926 291.075)" fill="#EBEBEB"/>
<ellipse opacity="0.2" rx="8.29913" ry="8.00984" transform="matrix(-1 0 0 1 8.29926 335.365)" fill="#EBEBEB"/>
<ellipse opacity="0.2" rx="8.29913" ry="8.00984" transform="matrix(-1 0 0 1 8.29926 379.654)" fill="#EBEBEB"/>
<ellipse opacity="0.2" rx="8.29913" ry="8.00984" transform="matrix(-1 0 0 1 8.29926 423.944)" fill="#EBEBEB"/>
<ellipse opacity="0.2" rx="8.29913" ry="8.00984" transform="matrix(-1 0 0 1 8.29926 468.233)" fill="#EBEBEB"/>
<ellipse opacity="0.2" rx="8.29913" ry="7.53867" transform="matrix(-1 0 0 1 8.29926 512.052)" fill="#EBEBEB"/>
<ellipse opacity="0.2" rx="8.29913" ry="8.00984" transform="matrix(-1 0 0 1 8.29926 555.871)" fill="#EBEBEB"/>
<ellipse opacity="0.2" rx="8.29913" ry="8.00984" transform="matrix(-1 0 0 1 8.29926 600.16)" fill="#EBEBEB"/>
</g>
</svg>
