<svg width="179" height="17" viewBox="0 0 179 17" fill="none" xmlns="http://www.w3.org/2000/svg">
<path d="M0.48 13C0.36 13 0.258 12.964 0.174 12.892C0.102 12.808 0.0660001 12.706 0.0660001 12.586V0.831999C0.0660001 0.699999 0.102 0.597999 0.174 0.526C0.258 0.441999 0.36 0.399999 0.48 0.399999H7.824C7.956 0.399999 8.058 0.441999 8.13 0.526C8.214 0.597999 8.256 0.699999 8.256 0.831999V1.552C8.256 1.672 8.214 1.774 8.13 1.858C8.058 1.93 7.956 1.966 7.824 1.966H1.812V6.16H7.464C7.596 6.16 7.698 6.202 7.77 6.286C7.854 6.358 7.896 6.46 7.896 6.592V7.312C7.896 7.432 7.854 7.534 7.77 7.618C7.686 7.69 7.584 7.726 7.464 7.726H1.812V12.586C1.812 12.706 1.77 12.808 1.686 12.892C1.602 12.964 1.5 13 1.38 13H0.48ZM13.9844 13.18C12.6644 13.18 11.6384 12.808 10.9064 12.064C10.1864 11.32 9.80236 10.33 9.75436 9.094L9.73636 8.32L9.75436 7.546C9.80236 6.322 10.1924 5.338 10.9244 4.594C11.6564 3.838 12.6764 3.46 13.9844 3.46C15.2924 3.46 16.3124 3.838 17.0444 4.594C17.7764 5.338 18.1664 6.322 18.2144 7.546C18.2264 7.678 18.2324 7.936 18.2324 8.32C18.2324 8.704 18.2264 8.962 18.2144 9.094C18.1664 10.33 17.7764 11.32 17.0444 12.064C16.3244 12.808 15.3044 13.18 13.9844 13.18ZM13.9844 11.794C14.7404 11.794 15.3344 11.554 15.7664 11.074C16.2104 10.594 16.4504 9.904 16.4864 9.004C16.4984 8.884 16.5044 8.656 16.5044 8.32C16.5044 7.984 16.4984 7.756 16.4864 7.636C16.4504 6.736 16.2104 6.046 15.7664 5.566C15.3344 5.086 14.7404 4.846 13.9844 4.846C13.2284 4.846 12.6284 5.086 12.1844 5.566C11.7404 6.046 11.5064 6.736 11.4824 7.636L11.4644 8.32L11.4824 9.004C11.5064 9.904 11.7404 10.594 12.1844 11.074C12.6284 11.554 13.2284 11.794 13.9844 11.794ZM20.9003 13C20.7803 13 20.6783 12.964 20.5943 12.892C20.5223 12.808 20.4863 12.706 20.4863 12.586V4.072C20.4863 3.952 20.5223 3.85 20.5943 3.766C20.6783 3.682 20.7803 3.64 20.9003 3.64H21.7283C21.8483 3.64 21.9503 3.682 22.0343 3.766C22.1183 3.85 22.1603 3.952 22.1603 4.072V4.864C22.6523 4.048 23.4923 3.64 24.6803 3.64H25.3823C25.5023 3.64 25.5983 3.682 25.6703 3.766C25.7543 3.838 25.7963 3.934 25.7963 4.054V4.792C25.7963 4.912 25.7543 5.008 25.6703 5.08C25.5983 5.152 25.5023 5.188 25.3823 5.188H24.3023C23.6543 5.188 23.1443 5.38 22.7723 5.764C22.4003 6.136 22.2143 6.646 22.2143 7.294V12.586C22.2143 12.706 22.1723 12.808 22.0883 12.892C22.0043 12.964 21.9023 13 21.7823 13H20.9003ZM30.9648 16.96C29.9808 16.96 29.1888 16.792 28.5888 16.456C27.9888 16.132 27.5628 15.76 27.3108 15.34C27.0588 14.92 26.9208 14.542 26.8968 14.206C26.8848 14.086 26.9208 13.984 27.0048 13.9C27.1008 13.816 27.2028 13.774 27.3108 13.774H28.1748C28.2828 13.774 28.3728 13.798 28.4448 13.846C28.5168 13.906 28.5768 14.008 28.6248 14.152C28.7688 14.536 29.0028 14.866 29.3268 15.142C29.6628 15.43 30.1788 15.574 30.8748 15.574C31.7628 15.574 32.4168 15.382 32.8368 14.998C33.2568 14.626 33.4668 13.96 33.4668 13V11.776C33.1548 12.172 32.7588 12.49 32.2788 12.73C31.7988 12.958 31.2288 13.072 30.5688 13.072C29.2968 13.072 28.3428 12.67 27.7068 11.866C27.0828 11.05 26.7528 10.018 26.7168 8.77L26.6988 8.266L26.7168 7.78C26.7528 6.544 27.0888 5.518 27.7248 4.702C28.3608 3.874 29.3088 3.46 30.5688 3.46C31.8288 3.46 32.8128 3.922 33.5208 4.846V4.072C33.5208 3.952 33.5568 3.85 33.6288 3.766C33.7128 3.682 33.8148 3.64 33.9348 3.64H34.7628C34.8828 3.64 34.9848 3.682 35.0688 3.766C35.1528 3.85 35.1948 3.952 35.1948 4.072V12.802C35.1948 15.574 33.7848 16.96 30.9648 16.96ZM30.9288 11.632C31.7448 11.632 32.3628 11.362 32.7828 10.822C33.2028 10.282 33.4308 9.64 33.4668 8.896C33.4788 8.788 33.4848 8.578 33.4848 8.266C33.4848 7.966 33.4788 7.762 33.4668 7.654C33.4308 6.91 33.2028 6.268 32.7828 5.728C32.3748 5.188 31.7568 4.918 30.9288 4.918C30.0768 4.918 29.4588 5.182 29.0748 5.71C28.6908 6.238 28.4808 6.934 28.4448 7.798L28.4268 8.266L28.4448 8.752C28.4808 9.604 28.6908 10.3 29.0748 10.84C29.4588 11.368 30.0768 11.632 30.9288 11.632ZM41.7051 13.18C40.3851 13.18 39.3591 12.808 38.6271 12.064C37.9071 11.32 37.5231 10.33 37.4751 9.094L37.4571 8.32L37.4751 7.546C37.5231 6.322 37.9131 5.338 38.6451 4.594C39.3771 3.838 40.3971 3.46 41.7051 3.46C43.0131 3.46 44.0331 3.838 44.7651 4.594C45.4971 5.338 45.8871 6.322 45.9351 7.546C45.9471 7.678 45.9531 7.936 45.9531 8.32C45.9531 8.704 45.9471 8.962 45.9351 9.094C45.8871 10.33 45.4971 11.32 44.7651 12.064C44.0451 12.808 43.0251 13.18 41.7051 13.18ZM41.7051 11.794C42.4611 11.794 43.0551 11.554 43.4871 11.074C43.9311 10.594 44.1711 9.904 44.2071 9.004C44.2191 8.884 44.2251 8.656 44.2251 8.32C44.2251 7.984 44.2191 7.756 44.2071 7.636C44.1711 6.736 43.9311 6.046 43.4871 5.566C43.0551 5.086 42.4611 4.846 41.7051 4.846C40.9491 4.846 40.3491 5.086 39.9051 5.566C39.4611 6.046 39.2271 6.736 39.2031 7.636L39.1851 8.32L39.2031 9.004C39.2271 9.904 39.4611 10.594 39.9051 11.074C40.3491 11.554 40.9491 11.794 41.7051 11.794ZM51.7731 13C49.8771 13 48.9291 11.944 48.9291 9.832V5.08H47.5251C47.4051 5.08 47.3031 5.044 47.2191 4.972C47.1471 4.888 47.1111 4.786 47.1111 4.666V4.054C47.1111 3.934 47.1471 3.838 47.2191 3.766C47.3031 3.682 47.4051 3.64 47.5251 3.64H48.9291V0.633999C48.9291 0.513999 48.9651 0.418 49.0371 0.346C49.1211 0.261999 49.2231 0.219999 49.3431 0.219999H50.1891C50.3091 0.219999 50.4051 0.261999 50.4771 0.346C50.5611 0.418 50.6031 0.513999 50.6031 0.633999V3.64H52.8351C52.9551 3.64 53.0511 3.682 53.1231 3.766C53.2071 3.838 53.2491 3.934 53.2491 4.054V4.666C53.2491 4.786 53.2071 4.888 53.1231 4.972C53.0511 5.044 52.9551 5.08 52.8351 5.08H50.6031V9.706C50.6031 10.306 50.7051 10.762 50.9091 11.074C51.1131 11.374 51.4491 11.524 51.9171 11.524H53.0151C53.1351 11.524 53.2311 11.566 53.3031 11.65C53.3871 11.722 53.4291 11.818 53.4291 11.938V12.586C53.4291 12.706 53.3871 12.808 53.3031 12.892C53.2311 12.964 53.1351 13 53.0151 13H51.7731ZM60.7083 16.42C60.6123 16.42 60.5283 16.384 60.4563 16.312C60.3843 16.24 60.3483 16.156 60.3483 16.06C60.3483 15.976 60.3783 15.868 60.4383 15.736L61.8243 12.442L58.3863 4.324C58.3263 4.168 58.2963 4.066 58.2963 4.018C58.2963 3.91 58.3323 3.82 58.4043 3.748C58.4763 3.676 58.5663 3.64 58.6743 3.64H59.5563C59.7483 3.64 59.8923 3.742 59.9883 3.946L62.7243 10.498L65.5323 3.946C65.6283 3.742 65.7783 3.64 65.9823 3.64H66.8283C66.9363 3.64 67.0263 3.676 67.0983 3.748C67.1703 3.82 67.2063 3.904 67.2063 4C67.2063 4.036 67.1763 4.144 67.1163 4.324L62.0043 16.114C61.9083 16.318 61.7583 16.42 61.5543 16.42H60.7083ZM72.5195 13.18C71.1995 13.18 70.1735 12.808 69.4415 12.064C68.7215 11.32 68.3375 10.33 68.2895 9.094L68.2715 8.32L68.2895 7.546C68.3375 6.322 68.7275 5.338 69.4595 4.594C70.1915 3.838 71.2115 3.46 72.5195 3.46C73.8275 3.46 74.8475 3.838 75.5795 4.594C76.3115 5.338 76.7015 6.322 76.7495 7.546C76.7615 7.678 76.7675 7.936 76.7675 8.32C76.7675 8.704 76.7615 8.962 76.7495 9.094C76.7015 10.33 76.3115 11.32 75.5795 12.064C74.8595 12.808 73.8395 13.18 72.5195 13.18ZM72.5195 11.794C73.2755 11.794 73.8695 11.554 74.3015 11.074C74.7455 10.594 74.9855 9.904 75.0215 9.004C75.0335 8.884 75.0395 8.656 75.0395 8.32C75.0395 7.984 75.0335 7.756 75.0215 7.636C74.9855 6.736 74.7455 6.046 74.3015 5.566C73.8695 5.086 73.2755 4.846 72.5195 4.846C71.7635 4.846 71.1635 5.086 70.7195 5.566C70.2755 6.046 70.0415 6.736 70.0175 7.636L69.9995 8.32L70.0175 9.004C70.0415 9.904 70.2755 10.594 70.7195 11.074C71.1635 11.554 71.7635 11.794 72.5195 11.794ZM82.5135 13.18C81.3735 13.18 80.4915 12.814 79.8675 12.082C79.2435 11.338 78.9315 10.354 78.9315 9.13V4.054C78.9315 3.934 78.9675 3.838 79.0395 3.766C79.1235 3.682 79.2255 3.64 79.3455 3.64H80.2455C80.3655 3.64 80.4615 3.682 80.5335 3.766C80.6175 3.838 80.6595 3.934 80.6595 4.054V9.04C80.6595 10.828 81.4395 11.722 82.9995 11.722C83.7555 11.722 84.3555 11.488 84.7995 11.02C85.2435 10.54 85.4655 9.88 85.4655 9.04V4.054C85.4655 3.934 85.5015 3.838 85.5735 3.766C85.6575 3.682 85.7595 3.64 85.8795 3.64H86.7795C86.8995 3.64 86.9955 3.682 87.0675 3.766C87.1395 3.838 87.1755 3.934 87.1755 4.054V12.586C87.1755 12.706 87.1395 12.808 87.0675 12.892C86.9955 12.964 86.8995 13 86.7795 13H85.9335C85.8135 13 85.7115 12.964 85.6275 12.892C85.5555 12.808 85.5195 12.706 85.5195 12.586V11.794C85.1835 12.25 84.7755 12.598 84.2955 12.838C83.8155 13.066 83.2215 13.18 82.5135 13.18ZM90.2636 13C90.1436 13 90.0416 12.964 89.9576 12.892C89.8856 12.808 89.8496 12.706 89.8496 12.586V4.072C89.8496 3.952 89.8856 3.85 89.9576 3.766C90.0416 3.682 90.1436 3.64 90.2636 3.64H91.0916C91.2116 3.64 91.3136 3.682 91.3976 3.766C91.4816 3.85 91.5236 3.952 91.5236 4.072V4.864C92.0156 4.048 92.8556 3.64 94.0436 3.64H94.7456C94.8656 3.64 94.9616 3.682 95.0336 3.766C95.1176 3.838 95.1596 3.934 95.1596 4.054V4.792C95.1596 4.912 95.1176 5.008 95.0336 5.08C94.9616 5.152 94.8656 5.188 94.7456 5.188H93.6656C93.0176 5.188 92.5076 5.38 92.1356 5.764C91.7636 6.136 91.5776 6.646 91.5776 7.294V12.586C91.5776 12.706 91.5356 12.808 91.4516 12.892C91.3676 12.964 91.2656 13 91.1456 13H90.2636ZM101.11 16.42C100.99 16.42 100.888 16.378 100.804 16.294C100.732 16.222 100.696 16.126 100.696 16.006V4.054C100.696 3.934 100.732 3.838 100.804 3.766C100.888 3.682 100.99 3.64 101.11 3.64H101.938C102.058 3.64 102.154 3.682 102.226 3.766C102.31 3.838 102.352 3.934 102.352 4.054V4.846C103.024 3.922 104.008 3.46 105.304 3.46C106.564 3.46 107.506 3.856 108.13 4.648C108.766 5.44 109.108 6.46 109.156 7.708C109.168 7.84 109.174 8.044 109.174 8.32C109.174 8.596 109.168 8.8 109.156 8.932C109.108 10.168 108.766 11.188 108.13 11.992C107.494 12.784 106.552 13.18 105.304 13.18C104.056 13.18 103.084 12.73 102.388 11.83V16.006C102.388 16.126 102.352 16.222 102.28 16.294C102.208 16.378 102.112 16.42 101.992 16.42H101.11ZM104.926 11.722C105.778 11.722 106.396 11.458 106.78 10.93C107.176 10.402 107.392 9.706 107.428 8.842C107.44 8.722 107.446 8.548 107.446 8.32C107.446 6.052 106.606 4.918 104.926 4.918C104.098 4.918 103.474 5.194 103.054 5.746C102.646 6.286 102.424 6.934 102.388 7.69L102.37 8.374L102.388 9.076C102.412 9.784 102.64 10.402 103.072 10.93C103.504 11.458 104.122 11.722 104.926 11.722ZM114.01 13.18C113.422 13.18 112.876 13.06 112.372 12.82C111.868 12.58 111.466 12.256 111.166 11.848C110.878 11.428 110.734 10.966 110.734 10.462C110.734 9.67 111.058 9.022 111.706 8.518C112.366 8.002 113.254 7.666 114.37 7.51L117.052 7.132V6.61C117.052 5.386 116.35 4.774 114.946 4.774C114.418 4.774 113.986 4.888 113.65 5.116C113.314 5.332 113.062 5.59 112.894 5.89C112.858 5.998 112.81 6.076 112.75 6.124C112.702 6.172 112.63 6.196 112.534 6.196H111.76C111.652 6.196 111.556 6.16 111.472 6.088C111.4 6.004 111.364 5.908 111.364 5.8C111.376 5.512 111.508 5.188 111.76 4.828C112.024 4.456 112.426 4.138 112.966 3.874C113.506 3.598 114.172 3.46 114.964 3.46C116.308 3.46 117.274 3.778 117.862 4.414C118.45 5.038 118.744 5.818 118.744 6.754V12.586C118.744 12.706 118.702 12.808 118.618 12.892C118.546 12.964 118.45 13 118.33 13H117.502C117.382 13 117.28 12.964 117.196 12.892C117.124 12.808 117.088 12.706 117.088 12.586V11.812C116.824 12.196 116.44 12.52 115.936 12.784C115.432 13.048 114.79 13.18 114.01 13.18ZM114.388 11.83C115.168 11.83 115.804 11.578 116.296 11.074C116.8 10.558 117.052 9.82 117.052 8.86V8.356L114.964 8.662C114.112 8.782 113.47 8.986 113.038 9.274C112.606 9.55 112.39 9.904 112.39 10.336C112.39 10.816 112.588 11.188 112.984 11.452C113.38 11.704 113.848 11.83 114.388 11.83ZM124.572 13.18C123.732 13.18 123.024 13.048 122.448 12.784C121.884 12.508 121.458 12.196 121.17 11.848C120.894 11.5 120.756 11.212 120.756 10.984C120.756 10.864 120.798 10.774 120.882 10.714C120.978 10.642 121.074 10.606 121.17 10.606H121.98C122.1 10.606 122.208 10.666 122.304 10.786C122.592 11.122 122.904 11.386 123.24 11.578C123.576 11.77 124.026 11.866 124.59 11.866C125.214 11.866 125.718 11.746 126.102 11.506C126.498 11.254 126.696 10.912 126.696 10.48C126.696 10.192 126.612 9.958 126.444 9.778C126.288 9.586 126.012 9.424 125.616 9.292C125.232 9.148 124.656 8.992 123.888 8.824C122.844 8.596 122.1 8.266 121.656 7.834C121.224 7.402 121.008 6.844 121.008 6.16C121.008 5.704 121.14 5.272 121.404 4.864C121.68 4.444 122.076 4.108 122.592 3.856C123.12 3.592 123.75 3.46 124.482 3.46C125.25 3.46 125.904 3.586 126.444 3.838C126.984 4.09 127.386 4.39 127.65 4.738C127.926 5.074 128.064 5.356 128.064 5.584C128.064 5.692 128.022 5.782 127.938 5.854C127.866 5.926 127.776 5.962 127.668 5.962H126.912C126.768 5.962 126.648 5.902 126.552 5.782C126.36 5.554 126.192 5.38 126.048 5.26C125.916 5.128 125.718 5.014 125.454 4.918C125.202 4.822 124.878 4.774 124.482 4.774C123.906 4.774 123.462 4.9 123.15 5.152C122.838 5.392 122.682 5.71 122.682 6.106C122.682 6.358 122.748 6.574 122.88 6.754C123.012 6.922 123.264 7.078 123.636 7.222C124.02 7.366 124.572 7.516 125.292 7.672C126.432 7.912 127.236 8.26 127.704 8.716C128.184 9.16 128.424 9.73 128.424 10.426C128.424 10.942 128.274 11.41 127.974 11.83C127.674 12.25 127.23 12.58 126.642 12.82C126.066 13.06 125.376 13.18 124.572 13.18ZM133.748 13.18C132.908 13.18 132.2 13.048 131.624 12.784C131.06 12.508 130.634 12.196 130.346 11.848C130.07 11.5 129.932 11.212 129.932 10.984C129.932 10.864 129.974 10.774 130.058 10.714C130.154 10.642 130.25 10.606 130.346 10.606H131.156C131.276 10.606 131.384 10.666 131.48 10.786C131.768 11.122 132.08 11.386 132.416 11.578C132.752 11.77 133.202 11.866 133.766 11.866C134.39 11.866 134.894 11.746 135.278 11.506C135.674 11.254 135.872 10.912 135.872 10.48C135.872 10.192 135.788 9.958 135.62 9.778C135.464 9.586 135.188 9.424 134.792 9.292C134.408 9.148 133.832 8.992 133.064 8.824C132.02 8.596 131.276 8.266 130.832 7.834C130.4 7.402 130.184 6.844 130.184 6.16C130.184 5.704 130.316 5.272 130.58 4.864C130.856 4.444 131.252 4.108 131.768 3.856C132.296 3.592 132.926 3.46 133.658 3.46C134.426 3.46 135.08 3.586 135.62 3.838C136.16 4.09 136.562 4.39 136.826 4.738C137.102 5.074 137.24 5.356 137.24 5.584C137.24 5.692 137.198 5.782 137.114 5.854C137.042 5.926 136.952 5.962 136.844 5.962H136.088C135.944 5.962 135.824 5.902 135.728 5.782C135.536 5.554 135.368 5.38 135.224 5.26C135.092 5.128 134.894 5.014 134.63 4.918C134.378 4.822 134.054 4.774 133.658 4.774C133.082 4.774 132.638 4.9 132.326 5.152C132.014 5.392 131.858 5.71 131.858 6.106C131.858 6.358 131.924 6.574 132.056 6.754C132.188 6.922 132.44 7.078 132.812 7.222C133.196 7.366 133.748 7.516 134.468 7.672C135.608 7.912 136.412 8.26 136.88 8.716C137.36 9.16 137.6 9.73 137.6 10.426C137.6 10.942 137.45 11.41 137.15 11.83C136.85 12.25 136.406 12.58 135.818 12.82C135.242 13.06 134.552 13.18 133.748 13.18ZM141.921 13C141.765 13 141.645 12.964 141.561 12.892C141.477 12.82 141.405 12.706 141.345 12.55L138.789 4.198L138.753 4.018C138.753 3.91 138.789 3.82 138.861 3.748C138.945 3.676 139.035 3.64 139.131 3.64H139.923C140.043 3.64 140.139 3.676 140.211 3.748C140.295 3.808 140.349 3.874 140.373 3.946L142.371 10.732L144.513 4.018C144.537 3.922 144.591 3.838 144.675 3.766C144.759 3.682 144.873 3.64 145.017 3.64H145.629C145.773 3.64 145.887 3.682 145.971 3.766C146.055 3.838 146.109 3.922 146.133 4.018L148.275 10.732L150.273 3.946C150.285 3.886 150.327 3.82 150.399 3.748C150.483 3.676 150.585 3.64 150.705 3.64H151.515C151.611 3.64 151.695 3.676 151.767 3.748C151.839 3.82 151.875 3.91 151.875 4.018L151.839 4.198L149.301 12.55C149.241 12.706 149.169 12.82 149.085 12.892C149.001 12.964 148.875 13 148.707 13H148.005C147.681 13 147.483 12.85 147.411 12.55L145.323 6.106L143.235 12.55C143.139 12.85 142.935 13 142.623 13H141.921ZM157.457 13.18C156.137 13.18 155.111 12.808 154.379 12.064C153.659 11.32 153.275 10.33 153.227 9.094L153.209 8.32L153.227 7.546C153.275 6.322 153.665 5.338 154.397 4.594C155.129 3.838 156.149 3.46 157.457 3.46C158.765 3.46 159.785 3.838 160.517 4.594C161.249 5.338 161.639 6.322 161.687 7.546C161.699 7.678 161.705 7.936 161.705 8.32C161.705 8.704 161.699 8.962 161.687 9.094C161.639 10.33 161.249 11.32 160.517 12.064C159.797 12.808 158.777 13.18 157.457 13.18ZM157.457 11.794C158.213 11.794 158.807 11.554 159.239 11.074C159.683 10.594 159.923 9.904 159.959 9.004C159.971 8.884 159.977 8.656 159.977 8.32C159.977 7.984 159.971 7.756 159.959 7.636C159.923 6.736 159.683 6.046 159.239 5.566C158.807 5.086 158.213 4.846 157.457 4.846C156.701 4.846 156.101 5.086 155.657 5.566C155.213 6.046 154.979 6.736 154.955 7.636L154.937 8.32L154.955 9.004C154.979 9.904 155.213 10.594 155.657 11.074C156.101 11.554 156.701 11.794 157.457 11.794ZM164.373 13C164.253 13 164.151 12.964 164.067 12.892C163.995 12.808 163.959 12.706 163.959 12.586V4.072C163.959 3.952 163.995 3.85 164.067 3.766C164.151 3.682 164.253 3.64 164.373 3.64H165.201C165.321 3.64 165.423 3.682 165.507 3.766C165.591 3.85 165.633 3.952 165.633 4.072V4.864C166.125 4.048 166.965 3.64 168.153 3.64H168.855C168.975 3.64 169.071 3.682 169.143 3.766C169.227 3.838 169.269 3.934 169.269 4.054V4.792C169.269 4.912 169.227 5.008 169.143 5.08C169.071 5.152 168.975 5.188 168.855 5.188H167.775C167.127 5.188 166.617 5.38 166.245 5.764C165.873 6.136 165.687 6.646 165.687 7.294V12.586C165.687 12.706 165.645 12.808 165.561 12.892C165.477 12.964 165.375 13 165.255 13H164.373ZM174.023 13.18C172.775 13.18 171.833 12.772 171.197 11.956C170.561 11.14 170.225 10.108 170.189 8.86L170.171 8.32L170.189 7.78C170.225 6.544 170.561 5.518 171.197 4.702C171.833 3.874 172.775 3.46 174.023 3.46C175.259 3.46 176.231 3.898 176.939 4.774V0.633999C176.939 0.513999 176.975 0.418 177.047 0.346C177.131 0.261999 177.233 0.219999 177.353 0.219999H178.217C178.337 0.219999 178.433 0.261999 178.505 0.346C178.589 0.418 178.631 0.513999 178.631 0.633999V12.586C178.631 12.706 178.589 12.808 178.505 12.892C178.433 12.964 178.337 13 178.217 13H177.407C177.287 13 177.185 12.964 177.101 12.892C177.029 12.808 176.993 12.706 176.993 12.586V11.83C176.297 12.73 175.307 13.18 174.023 13.18ZM174.401 11.722C175.229 11.722 175.847 11.452 176.255 10.912C176.675 10.36 176.903 9.706 176.939 8.95C176.951 8.818 176.957 8.59 176.957 8.266C176.957 7.93 176.951 7.696 176.939 7.564C176.915 6.856 176.687 6.238 176.255 5.71C175.823 5.182 175.205 4.918 174.401 4.918C173.549 4.918 172.925 5.182 172.529 5.71C172.145 6.238 171.935 6.934 171.899 7.798L171.881 8.32C171.881 10.588 172.721 11.722 174.401 11.722Z" fill="#3D23B3"/>
</svg>
