<svg width="140" height="18" viewBox="0 0 140 18" fill="none" xmlns="http://www.w3.org/2000/svg">
<path d="M1.336 14C1.216 14 1.114 13.958 1.03 13.874C0.946 13.79 0.904 13.688 0.904 13.568V1.85C0.904 1.718 0.94 1.61 1.012 1.526C1.096 1.442 1.204 1.4 1.336 1.4H2.92C3.052 1.4 3.16 1.442 3.244 1.526C3.328 1.61 3.37 1.718 3.37 1.85V6.062L7.438 1.724C7.594 1.508 7.828 1.4 8.14 1.4H9.922C10.018 1.4 10.102 1.436 10.174 1.508C10.258 1.58 10.3 1.67 10.3 1.778C10.3 1.862 10.276 1.934 10.228 1.994L5.278 7.43L10.57 13.388C10.63 13.46 10.66 13.538 10.66 13.622C10.66 13.73 10.618 13.82 10.534 13.892C10.462 13.964 10.378 14 10.282 14H8.428C8.128 14 7.894 13.892 7.726 13.676L3.37 8.906V13.568C3.37 13.7 3.328 13.808 3.244 13.892C3.16 13.964 3.052 14 2.92 14H1.336ZM15.5657 14.18C14.2337 14.18 13.1717 13.796 12.3797 13.028C11.5997 12.248 11.1857 11.156 11.1377 9.752L11.1197 9.302L11.1377 8.852C11.1977 7.484 11.6177 6.41 12.3977 5.63C13.1897 4.85 14.2457 4.46 15.5657 4.46C16.9817 4.46 18.0737 4.892 18.8417 5.756C19.6217 6.62 20.0117 7.772 20.0117 9.212V9.59C20.0117 9.71 19.9697 9.812 19.8857 9.896C19.8017 9.98 19.6937 10.022 19.5617 10.022H13.5857V10.166C13.6097 10.826 13.7897 11.384 14.1257 11.84C14.4737 12.284 14.9477 12.506 15.5477 12.506C16.2557 12.506 16.8257 12.23 17.2577 11.678C17.3657 11.546 17.4497 11.462 17.5097 11.426C17.5817 11.39 17.6837 11.372 17.8157 11.372H19.3637C19.4717 11.372 19.5617 11.408 19.6337 11.48C19.7177 11.54 19.7597 11.618 19.7597 11.714C19.7597 12.002 19.5857 12.344 19.2377 12.74C18.9017 13.124 18.4157 13.46 17.7797 13.748C17.1437 14.036 16.4057 14.18 15.5657 14.18ZM17.5637 8.51V8.456C17.5637 7.748 17.3837 7.178 17.0237 6.746C16.6757 6.314 16.1897 6.098 15.5657 6.098C14.9417 6.098 14.4557 6.314 14.1077 6.746C13.7597 7.178 13.5857 7.748 13.5857 8.456V8.51H17.5637ZM25.9544 14.18C24.6224 14.18 23.5604 13.796 22.7684 13.028C21.9884 12.248 21.5744 11.156 21.5264 9.752L21.5084 9.302L21.5264 8.852C21.5864 7.484 22.0064 6.41 22.7864 5.63C23.5784 4.85 24.6344 4.46 25.9544 4.46C27.3704 4.46 28.4624 4.892 29.2304 5.756C30.0104 6.62 30.4004 7.772 30.4004 9.212V9.59C30.4004 9.71 30.3584 9.812 30.2744 9.896C30.1904 9.98 30.0824 10.022 29.9504 10.022H23.9744V10.166C23.9984 10.826 24.1784 11.384 24.5144 11.84C24.8624 12.284 25.3364 12.506 25.9364 12.506C26.6444 12.506 27.2144 12.23 27.6464 11.678C27.7544 11.546 27.8384 11.462 27.8984 11.426C27.9704 11.39 28.0724 11.372 28.2044 11.372H29.7524C29.8604 11.372 29.9504 11.408 30.0224 11.48C30.1064 11.54 30.1484 11.618 30.1484 11.714C30.1484 12.002 29.9744 12.344 29.6264 12.74C29.2904 13.124 28.8044 13.46 28.1684 13.748C27.5324 14.036 26.7944 14.18 25.9544 14.18ZM27.9524 8.51V8.456C27.9524 7.748 27.7724 7.178 27.4124 6.746C27.0644 6.314 26.5784 6.098 25.9544 6.098C25.3304 6.098 24.8444 6.314 24.4964 6.746C24.1484 7.178 23.9744 7.748 23.9744 8.456V8.51H27.9524ZM32.761 17.42C32.641 17.42 32.539 17.378 32.455 17.294C32.371 17.222 32.329 17.12 32.329 16.988V5.072C32.329 4.94 32.371 4.838 32.455 4.766C32.539 4.682 32.641 4.64 32.761 4.64H34.183C34.315 4.64 34.417 4.682 34.489 4.766C34.573 4.838 34.615 4.94 34.615 5.072V5.792C35.287 4.904 36.247 4.46 37.495 4.46C38.707 4.46 39.637 4.844 40.285 5.612C40.933 6.368 41.281 7.394 41.329 8.69C41.341 8.834 41.347 9.044 41.347 9.32C41.347 9.608 41.341 9.824 41.329 9.968C41.281 11.228 40.933 12.248 40.285 13.028C39.637 13.796 38.707 14.18 37.495 14.18C36.283 14.18 35.359 13.754 34.723 12.902V16.988C34.723 17.12 34.681 17.222 34.597 17.294C34.525 17.378 34.423 17.42 34.291 17.42H32.761ZM36.829 12.254C38.125 12.254 38.815 11.456 38.899 9.86C38.911 9.74 38.917 9.56 38.917 9.32C38.917 9.08 38.911 8.9 38.899 8.78C38.815 7.184 38.125 6.386 36.829 6.386C36.133 6.386 35.617 6.608 35.281 7.052C34.945 7.496 34.759 8.042 34.723 8.69L34.705 9.374L34.723 10.076C34.747 10.676 34.933 11.192 35.281 11.624C35.641 12.044 36.157 12.254 36.829 12.254ZM47.913 14C47.793 14 47.691 13.958 47.607 13.874C47.523 13.79 47.481 13.688 47.481 13.568V5.072C47.481 4.952 47.523 4.85 47.607 4.766C47.691 4.682 47.793 4.64 47.913 4.64H49.317C49.437 4.64 49.539 4.682 49.623 4.766C49.707 4.85 49.749 4.952 49.749 5.072V5.684C50.373 4.868 51.243 4.46 52.359 4.46C53.691 4.46 54.621 4.994 55.149 6.062C55.437 5.582 55.845 5.198 56.373 4.91C56.901 4.61 57.471 4.46 58.083 4.46C59.067 4.46 59.871 4.796 60.495 5.468C61.119 6.14 61.431 7.118 61.431 8.402V13.568C61.431 13.688 61.389 13.79 61.305 13.874C61.233 13.958 61.131 14 60.999 14H59.523C59.403 14 59.301 13.958 59.217 13.874C59.133 13.79 59.091 13.688 59.091 13.568V8.546C59.091 7.79 58.929 7.244 58.605 6.908C58.293 6.56 57.873 6.386 57.345 6.386C56.877 6.386 56.475 6.56 56.139 6.908C55.815 7.256 55.653 7.802 55.653 8.546V13.568C55.653 13.688 55.611 13.79 55.527 13.874C55.443 13.958 55.341 14 55.221 14H53.745C53.625 14 53.523 13.958 53.439 13.874C53.355 13.79 53.313 13.688 53.313 13.568V8.546C53.313 7.79 53.145 7.244 52.809 6.908C52.485 6.56 52.071 6.386 51.567 6.386C51.087 6.386 50.679 6.56 50.343 6.908C50.019 7.256 49.857 7.802 49.857 8.546V13.568C49.857 13.688 49.815 13.79 49.731 13.874C49.647 13.958 49.545 14 49.425 14H47.913ZM67.7552 14.18C66.4232 14.18 65.3612 13.796 64.5692 13.028C63.7892 12.248 63.3752 11.156 63.3272 9.752L63.3092 9.302L63.3272 8.852C63.3872 7.484 63.8072 6.41 64.5872 5.63C65.3792 4.85 66.4352 4.46 67.7552 4.46C69.1712 4.46 70.2632 4.892 71.0312 5.756C71.8112 6.62 72.2012 7.772 72.2012 9.212V9.59C72.2012 9.71 72.1592 9.812 72.0752 9.896C71.9912 9.98 71.8832 10.022 71.7512 10.022H65.7752V10.166C65.7992 10.826 65.9792 11.384 66.3152 11.84C66.6632 12.284 67.1372 12.506 67.7372 12.506C68.4452 12.506 69.0152 12.23 69.4472 11.678C69.5552 11.546 69.6392 11.462 69.6992 11.426C69.7712 11.39 69.8732 11.372 70.0052 11.372H71.5532C71.6612 11.372 71.7512 11.408 71.8232 11.48C71.9072 11.54 71.9492 11.618 71.9492 11.714C71.9492 12.002 71.7752 12.344 71.4272 12.74C71.0912 13.124 70.6052 13.46 69.9692 13.748C69.3332 14.036 68.5952 14.18 67.7552 14.18ZM69.7532 8.51V8.456C69.7532 7.748 69.5732 7.178 69.2132 6.746C68.8652 6.314 68.3792 6.098 67.7552 6.098C67.1312 6.098 66.6452 6.314 66.2972 6.746C65.9492 7.178 65.7752 7.748 65.7752 8.456V8.51H69.7532ZM81.7711 14.18C80.8711 14.18 80.1151 14.048 79.5031 13.784C78.8911 13.508 78.4351 13.19 78.1351 12.83C77.8471 12.458 77.7031 12.14 77.7031 11.876C77.7031 11.756 77.7451 11.66 77.8291 11.588C77.9131 11.516 78.0091 11.48 78.1171 11.48H79.5391C79.6471 11.48 79.7371 11.522 79.8091 11.606C79.8571 11.642 79.9831 11.75 80.1871 11.93C80.3911 12.122 80.6311 12.272 80.9071 12.38C81.1831 12.488 81.4891 12.542 81.8251 12.542C82.3051 12.542 82.7011 12.446 83.0131 12.254C83.3251 12.062 83.4811 11.798 83.4811 11.462C83.4811 11.21 83.4091 11.006 83.2651 10.85C83.1331 10.694 82.8871 10.556 82.5271 10.436C82.1671 10.304 81.6331 10.166 80.9251 10.022C79.9051 9.806 79.1491 9.476 78.6571 9.032C78.1771 8.588 77.9371 8 77.9371 7.268C77.9371 6.788 78.0811 6.338 78.3691 5.918C78.6571 5.486 79.0831 5.138 79.6471 4.874C80.2231 4.598 80.9071 4.46 81.6991 4.46C82.5031 4.46 83.1991 4.592 83.7871 4.856C84.3751 5.108 84.8191 5.414 85.1191 5.774C85.4311 6.122 85.5871 6.434 85.5871 6.71C85.5871 6.818 85.5451 6.914 85.4611 6.998C85.3891 7.07 85.2991 7.106 85.1911 7.106H83.8591C83.7631 7.106 83.6611 7.064 83.5531 6.98C83.4691 6.92 83.3371 6.806 83.1571 6.638C82.9771 6.47 82.7671 6.338 82.5271 6.242C82.2871 6.146 82.0051 6.098 81.6811 6.098C81.2371 6.098 80.8891 6.194 80.6371 6.386C80.3971 6.578 80.2771 6.83 80.2771 7.142C80.2771 7.37 80.3371 7.556 80.4571 7.7C80.5771 7.844 80.8111 7.982 81.1591 8.114C81.5071 8.246 82.0291 8.378 82.7251 8.51C83.8771 8.738 84.6991 9.092 85.1911 9.572C85.6951 10.052 85.9471 10.64 85.9471 11.336C85.9471 12.176 85.5811 12.86 84.8491 13.388C84.1171 13.916 83.0911 14.18 81.7711 14.18ZM88.1652 3.092C88.0452 3.092 87.9432 3.05 87.8592 2.966C87.7752 2.882 87.7332 2.78 87.7332 2.66V1.364C87.7332 1.244 87.7752 1.142 87.8592 1.058C87.9432 0.974 88.0452 0.932 88.1652 0.932H89.8032C89.9232 0.932 90.0252 0.974 90.1092 1.058C90.2052 1.142 90.2532 1.244 90.2532 1.364V2.66C90.2532 2.78 90.2112 2.882 90.1272 2.966C90.0432 3.05 89.9352 3.092 89.8032 3.092H88.1652ZM88.2372 14C88.1172 14 88.0152 13.958 87.9312 13.874C87.8472 13.79 87.8052 13.688 87.8052 13.568V5.072C87.8052 4.952 87.8472 4.85 87.9312 4.766C88.0152 4.682 88.1172 4.64 88.2372 4.64H89.7312C89.8632 4.64 89.9652 4.682 90.0372 4.766C90.1212 4.838 90.1632 4.94 90.1632 5.072V13.568C90.1632 13.688 90.1212 13.79 90.0372 13.874C89.9652 13.958 89.8632 14 89.7312 14H88.2372ZM96.7813 17.96C95.7133 17.96 94.8493 17.78 94.1893 17.42C93.5293 17.072 93.0613 16.67 92.7853 16.214C92.5093 15.758 92.3713 15.368 92.3713 15.044C92.3713 14.936 92.4133 14.84 92.4973 14.756C92.5933 14.672 92.6953 14.63 92.8033 14.63H94.3693C94.4773 14.63 94.5673 14.654 94.6393 14.702C94.7233 14.762 94.7893 14.864 94.8373 15.008C94.9573 15.332 95.1493 15.602 95.4133 15.818C95.6893 16.046 96.1153 16.16 96.6913 16.16C97.4113 16.16 97.9393 15.998 98.2753 15.674C98.6233 15.35 98.7973 14.792 98.7973 14V12.776C98.1373 13.556 97.2133 13.946 96.0253 13.946C94.7773 13.946 93.8353 13.562 93.1993 12.794C92.5753 12.026 92.2393 10.994 92.1913 9.698L92.1733 9.212L92.1913 8.726C92.2393 7.454 92.5813 6.428 93.2173 5.648C93.8533 4.856 94.7893 4.46 96.0253 4.46C96.6613 4.46 97.2193 4.58 97.6993 4.82C98.1793 5.06 98.5813 5.39 98.9053 5.81V5.09C98.9053 4.958 98.9473 4.85 99.0313 4.766C99.1153 4.682 99.2173 4.64 99.3373 4.64H100.795C100.915 4.64 101.017 4.688 101.101 4.784C101.185 4.868 101.227 4.97 101.227 5.09L101.245 13.766C101.245 15.098 100.873 16.13 100.129 16.862C99.3853 17.594 98.2693 17.96 96.7813 17.96ZM96.6913 12.038C97.3753 12.038 97.8853 11.822 98.2213 11.39C98.5693 10.958 98.7613 10.43 98.7973 9.806C98.8093 9.71 98.8153 9.512 98.8153 9.212C98.8153 8.924 98.8093 8.732 98.7973 8.636C98.7613 8 98.5693 7.466 98.2213 7.034C97.8853 6.602 97.3753 6.386 96.6913 6.386C95.3953 6.386 94.7113 7.184 94.6393 8.78L94.6213 9.212C94.6213 10.064 94.7713 10.748 95.0713 11.264C95.3833 11.78 95.9233 12.038 96.6913 12.038ZM104.075 14C103.955 14 103.853 13.958 103.769 13.874C103.685 13.79 103.643 13.688 103.643 13.568V5.072C103.643 4.952 103.685 4.85 103.769 4.766C103.853 4.682 103.955 4.64 104.075 4.64H105.551C105.671 4.64 105.773 4.682 105.857 4.766C105.941 4.85 105.983 4.952 105.983 5.072V5.81C106.691 4.91 107.693 4.46 108.989 4.46C110.093 4.46 110.969 4.826 111.617 5.558C112.265 6.278 112.589 7.262 112.589 8.51V13.568C112.589 13.688 112.547 13.79 112.463 13.874C112.391 13.958 112.289 14 112.157 14H110.573C110.453 14 110.351 13.958 110.267 13.874C110.183 13.79 110.141 13.688 110.141 13.568V8.618C110.141 7.91 109.967 7.364 109.619 6.98C109.283 6.584 108.791 6.386 108.143 6.386C107.507 6.386 107.003 6.584 106.631 6.98C106.271 7.376 106.091 7.922 106.091 8.618V13.568C106.091 13.688 106.049 13.79 105.965 13.874C105.893 13.958 105.791 14 105.659 14H104.075ZM122.463 14.18C121.359 14.18 120.489 13.82 119.853 13.1C119.217 12.368 118.899 11.378 118.899 10.13V5.072C118.899 4.952 118.941 4.85 119.025 4.766C119.109 4.682 119.211 4.64 119.331 4.64H120.915C121.047 4.64 121.149 4.682 121.221 4.766C121.305 4.838 121.347 4.94 121.347 5.072V10.022C121.347 11.51 122.001 12.254 123.309 12.254C123.933 12.254 124.425 12.056 124.785 11.66C125.157 11.264 125.343 10.718 125.343 10.022V5.072C125.343 4.952 125.385 4.85 125.469 4.766C125.553 4.682 125.655 4.64 125.775 4.64H127.359C127.491 4.64 127.593 4.682 127.665 4.766C127.749 4.838 127.791 4.94 127.791 5.072V13.568C127.791 13.688 127.749 13.79 127.665 13.874C127.593 13.958 127.491 14 127.359 14H125.901C125.781 14 125.679 13.958 125.595 13.874C125.511 13.79 125.469 13.688 125.469 13.568V12.83C124.797 13.73 123.795 14.18 122.463 14.18ZM130.618 17.42C130.498 17.42 130.396 17.378 130.312 17.294C130.228 17.222 130.186 17.12 130.186 16.988V5.072C130.186 4.94 130.228 4.838 130.312 4.766C130.396 4.682 130.498 4.64 130.618 4.64H132.04C132.172 4.64 132.274 4.682 132.346 4.766C132.43 4.838 132.472 4.94 132.472 5.072V5.792C133.144 4.904 134.104 4.46 135.352 4.46C136.564 4.46 137.494 4.844 138.142 5.612C138.79 6.368 139.138 7.394 139.186 8.69C139.198 8.834 139.204 9.044 139.204 9.32C139.204 9.608 139.198 9.824 139.186 9.968C139.138 11.228 138.79 12.248 138.142 13.028C137.494 13.796 136.564 14.18 135.352 14.18C134.14 14.18 133.216 13.754 132.58 12.902V16.988C132.58 17.12 132.538 17.222 132.454 17.294C132.382 17.378 132.28 17.42 132.148 17.42H130.618ZM134.686 12.254C135.982 12.254 136.672 11.456 136.756 9.86C136.768 9.74 136.774 9.56 136.774 9.32C136.774 9.08 136.768 8.9 136.756 8.78C136.672 7.184 135.982 6.386 134.686 6.386C133.99 6.386 133.474 6.608 133.138 7.052C132.802 7.496 132.616 8.042 132.58 8.69L132.562 9.374L132.58 10.076C132.604 10.676 132.79 11.192 133.138 11.624C133.498 12.044 134.014 12.254 134.686 12.254Z" fill="#3D23B3"/>
</svg>
