<svg width="150" height="93" viewBox="0 0 150 93" fill="none" xmlns="http://www.w3.org/2000/svg">
<path d="M54.1346 19.6335L54.4202 43.579H44.7V19.6335C44.7 19.6335 43.8423 17.4417 49.5601 17.4417C49.5601 17.4417 54.115 17.9964 54.1346 19.6335Z" fill="#FFDE4C"/>
<path d="M12.9663 41.4019H30.4051C30.4051 41.4019 30.9771 33.9481 21.6857 33.2912C21.6866 33.2912 12.9663 35.6489 12.9663 41.4019Z" fill="#FFDE4C"/>
<path d="M17.2552 32.712C17.2552 32.712 26.6899 26.0285 17.2552 15.8919C17.2552 15.8919 7.8205 22.0255 17.2552 32.712Z" fill="#FFDE4C"/>
<path d="M0.437012 31.8052C0.437012 31.8052 3.97832 40.8389 15.3337 35.1081C15.3337 35.1072 11.3047 25.9656 0.437012 31.8052Z" fill="#FFDE4C"/>
<path d="M56.1353 41.4018V28.5259C56.1353 28.5259 60.7098 27.3732 60.7098 33.292L58.4225 41.4026H56.1353V41.4018Z" fill="#FFDE4C"/>
<path d="M63.6485 41.4018H70.0338L71.2724 28.4353C71.2724 28.4353 71.6535 23.4331 68.4131 22.9095H65.6016C65.6016 22.9095 62.79 24.1463 62.981 30.4352C63.1719 36.724 63.6485 41.4018 63.6485 41.4018Z" fill="#FFDE4C"/>
<path d="M71.2861 41.4018H75.5606C75.5606 41.4018 81.2784 20.3058 82.4224 1.94907H74.4174C74.4174 1.94907 72.2529 40.4884 71.2861 41.4018Z" fill="#FFDE4C"/>
<path d="M67.6016 74.0501C67.6016 74.0501 68.9715 72.5339 70.3066 77.6357C71.6407 82.7375 75.0806 80.205 73.1701 77.6357C71.2597 75.0664 68.9724 73.8279 69.1633 71.7986C69.3543 69.7694 68.9724 71.0479 68.9724 71.0479L67.6016 74.0501Z" fill="#FFDE4C"/>
<path d="M71.1011 72.007C71.1011 72.007 71.8777 76.7126 74.1676 74.2585L71.1011 72.007Z" fill="#FFDE4C"/>
<path d="M33.8807 72.6557C33.8807 72.6557 20.088 64.9453 25.1579 70.0276C30.2277 75.1098 26.3787 77.0124 26.3787 77.0124C26.3787 77.0124 18.7547 84.6713 23.9005 85.7676C29.047 86.8632 25.4256 81.5669 27.868 77.0124C30.3104 72.458 33.8739 73.4269 33.8739 73.4269" fill="#FFDE4C"/>
<path d="M35.9082 73.4277C35.9082 73.4277 36.0991 75.3818 35.9082 77.0132C35.7172 78.6447 36.9832 79.558 37.3037 77.9143C37.6234 76.2698 35.9082 73.4277 35.9082 73.4277Z" fill="#FFDE4C"/>
<path d="M65.998 50.8784C65.998 50.8784 67.1643 53.6184 67.3305 55.9924C67.3305 55.9924 66.8318 61.4112 67.3305 61.8981C67.8292 62.385 68.2171 61.4717 68.1063 60.8026C67.9955 60.1327 67.6076 53.9231 67.6076 53.9231C67.6076 53.9231 67.3859 51.6708 68.4942 51.5491C69.6033 51.4257 65.998 50.8784 65.998 50.8784Z" fill="#FFDE4C"/>
<path d="M68.7816 51.2435C68.7816 51.2435 68.2095 52.2786 68.7816 52.6438C69.3536 53.0089 68.7816 50.8784 68.7816 50.8784" fill="#FFDE4C"/>
<path d="M23.2279 50.7567C23.2279 50.7567 23.99 52.6438 23.4819 53.8006C22.9738 54.9574 23.9841 55.6273 24.4001 55.3226C24.8161 55.0178 23.8136 53.076 23.8136 53.076L23.8639 50.7559H22.9099" fill="#FFDE4C"/>
<path d="M23.8364 52.036C23.8364 52.036 24.2363 53.9918 24.3138 54.2254C24.3914 54.4591 24.2363 53.9918 24.2363 53.9918L23.8364 54.2908V52.036Z" fill="#FFDE4C"/>
<path d="M24.0659 57.2939C24.2763 57.2939 24.447 57.1304 24.447 56.9287C24.447 56.727 24.2763 56.5635 24.0659 56.5635C23.8554 56.5635 23.6848 56.727 23.6848 56.9287C23.6848 57.1304 23.8554 57.2939 24.0659 57.2939Z" fill="#FFDE4C"/>
<path d="M44.0664 69.874C44.0664 69.874 45.3375 71.579 45.2096 72.3094C45.0826 73.0397 46.2258 74.2578 46.3528 72.3094C46.4798 70.3609 46.0988 71.2138 46.9879 69.874C47.8771 68.5342 44.6529 69.874 44.6529 69.874" fill="#FFDE4C"/>
<path d="M41.3573 10.1251C43.3734 7.00271 42.2191 20.6424 42.2191 20.6424C42.2191 20.6424 39.0854 13.6428 41.3573 10.1251Z" fill="#FFDE4C"/>
<path d="M40.6915 5.19561C41.0738 5.19561 41.3837 4.89862 41.3837 4.53225C41.3837 4.16589 41.0738 3.8689 40.6915 3.8689C40.3092 3.8689 39.9993 4.16589 39.9993 4.53225C39.9993 4.89862 40.3092 5.19561 40.6915 5.19561Z" fill="#FFDE4C"/>
<path d="M98.9492 13.7442C101.517 13.1094 94.3149 19.5624 94.3149 19.5624C94.3149 19.5624 96.0558 14.4598 98.9492 13.7442Z" fill="#FFDE4C"/>
<path d="M83.9943 10.6798C83.7334 12.1585 89.787 4.00944 87.0249 2.35431C87.0258 2.35431 85.8954 -0.081816 83.9943 10.6798Z" fill="#FFDE4C"/>
<path d="M14.0574 19.5624C14.0574 19.5624 15.031 15.2441 12.967 13.7001C12.967 13.7001 13.5425 11.7492 14.2867 13.4966C15.031 15.2441 14.2373 19.1001 15.3336 19.1899" fill="#FFDE4C"/>
<path d="M36.937 59.6956C36.937 59.6956 33.8083 57.5479 32.7648 56.3102C31.7222 55.0726 27.9482 56.2923 30.6787 58.0029C33.4093 59.7144 33.8074 57.8224 35.6335 59.6956" fill="#FFDE4C"/>
<path d="M70.1796 11.6389L68.4643 13.3741C68.4643 13.3741 68.605 12.0065 68.7124 10.9543C68.8207 9.90123 70.42 6.31158 69.5939 5.58123C68.7678 4.85088 68.3868 6.55503 68.4149 8.88414C68.443 11.2124 67.2248 10.9551 67.2248 10.9551C67.2248 10.9551 66.0995 9.96577 65.8454 8.26081C65.5914 6.55585 66.4149 1.68604 66.4149 1.68604C67.0526 -0.542589 63.4311 -0.749275 64.7022 2.23421C65.9733 5.21769 64.669 7.52719 64.669 7.52719C64.669 7.52719 64.4482 9.23542 63.4473 7.15385C62.4465 5.07227 63.4311 4.60825 62.0339 4.3648C60.9529 4.17608 64.1933 13.7654 65.7167 18.1213C65.6468 18.1875 65.6059 18.2292 65.6059 18.2292L66.1873 19.4562C66.3604 19.9431 66.4627 20.225 66.4627 20.225L66.5496 20.2201L66.8829 20.9243C66.8829 20.9243 67.9528 21.1457 68.4115 18.0462C68.4336 17.8959 68.4447 17.7643 68.4507 17.6426L70.1796 11.6389Z" fill="#FFDE4C"/>
<path d="M57.7398 26.647C57.7398 26.647 60.8242 22.2314 59.8864 23.0402C58.9486 23.849 58.4226 24.3024 58.4226 24.3024L59.3348 21.5329C59.3348 21.5329 61.2845 17.0324 58.9018 20.9259C58.9018 20.9259 57.9111 21.0436 58.4226 19.3394C58.9333 17.6353 59.8233 16.8445 59.1882 16.1746C58.5531 15.5047 59.1243 18.4269 58.045 19.1581L57.2803 19.8647C57.2803 19.8647 56.4542 20.2438 56.7415 16.9613C56.7415 16.9613 57.2777 12.5049 56.1362 13.7009V26.647C56.1354 26.647 56.8728 27.9133 57.7398 26.647Z" fill="#FFDE4C"/>
<path d="M76.8547 1.80609L75.8862 15.1509L79.4685 1.80609H76.8547Z" fill="#FFDE4C"/>
<path d="M89.181 13.4868L87.8297 13.1723C87.2841 13.0449 86.73 13.3692 86.597 13.8912C86.5177 14.2025 86.6072 14.5162 86.8059 14.7466L84.7854 20.7756C83.8758 20.7977 82.8102 21.1743 81.5723 22.1121L77.4189 41.4018H79.4956H85.8673L89.2048 24.8816C89.2048 24.8816 89.2023 24.8726 89.1972 24.8562C89.1997 24.8432 89.2023 24.8317 89.2048 24.8179C89.4827 23.3188 88.7411 22.2739 87.8869 21.5885L89.1963 15.3821C89.5475 15.2939 89.8399 15.0284 89.9312 14.6673C90.0642 14.1453 89.7266 13.6135 89.181 13.4868Z" fill="#FFDE4C"/>
<path d="M25.3617 3.25873C25.3617 3.25873 17.9909 4.67123 33.3224 41.4019H43.052V28.6878C43.052 28.6878 32.1425 4.38856 25.3617 3.25873ZM27.5449 17.5896C27.7819 13.7638 31.5432 12.1937 31.5432 12.1937C30.851 16.2718 27.5449 17.5896 27.5449 17.5896ZM30.0914 25.3685C30.429 19.9211 35.7835 17.686 35.7835 17.686C34.7972 23.4928 30.0914 25.3685 30.0914 25.3685ZM32.8927 33.105C33.2303 27.6576 38.5849 25.4224 38.5849 25.4224C37.5985 31.2285 32.8927 33.105 32.8927 33.105Z" fill="#FFDE4C"/>
<path d="M86.0294 43.5193C86.0294 62.7339 69.7746 78.3106 49.7237 78.3106C29.6728 78.3106 13.4172 62.7339 13.4172 43.5193" fill="#FFDE4C"/>
<path d="M26.5671 68.5766C26.3958 68.5766 26.256 68.5137 26.1477 68.3887C26.0386 68.2637 25.9849 68.102 25.9849 67.9043V50.42C25.9849 50.2231 26.0394 50.0613 26.1477 49.9355C26.256 49.8105 26.3966 49.7468 26.5671 49.7468H33.6804C35.0171 49.7468 36.1134 49.9617 36.9685 50.3922C37.8236 50.8227 38.457 51.4371 38.8687 52.2344C39.2805 53.0326 39.4868 53.9786 39.4868 55.0725C39.4868 55.7179 39.3819 56.2873 39.1722 56.7807C38.9625 57.2742 38.7059 57.6818 38.4024 58.0045C38.0998 58.3272 37.8159 58.5609 37.5516 58.7038C38.1424 59.0265 38.6667 59.5559 39.1253 60.2911C39.584 61.0264 39.8133 61.8874 39.8133 62.8735C39.8133 64.0573 39.584 65.0752 39.1253 65.9264C38.6667 66.7785 37.9975 67.4329 37.1194 67.8904C36.2405 68.3479 35.1637 68.5766 33.8893 68.5766H26.5671ZM30.1587 57.2251H33.2141C33.8509 57.2251 34.3291 57.0372 34.648 56.6606C34.9668 56.284 35.1262 55.7996 35.1262 55.2081C35.1262 54.6346 34.9668 54.164 34.648 53.7956C34.3291 53.428 33.8509 53.2442 33.2141 53.2442H30.1587V57.2251ZM30.1587 65.0801H33.4238C34.0922 65.0801 34.5977 64.8562 34.9395 64.4077C35.2814 63.96 35.4527 63.4486 35.4527 62.8743C35.4527 62.2469 35.278 61.7175 34.9285 61.2878C34.5789 60.8573 34.0768 60.6424 33.4238 60.6424H30.1587V65.0801Z" fill="#532A9F"/>
<path d="M42.9856 68.5766C42.8142 68.5766 42.6744 68.5137 42.5661 68.3887C42.457 68.2637 42.4033 68.102 42.4033 67.9043V50.42C42.4033 50.2231 42.4579 50.0613 42.5661 49.9355C42.6744 49.8105 42.8151 49.7468 42.9856 49.7468H45.9941C46.1646 49.7468 46.3052 49.8097 46.4135 49.9355C46.5218 50.0613 46.5763 50.2223 46.5763 50.42V56.9025H52.3367V50.42C52.3367 50.2231 52.3913 50.0613 52.4995 49.9355C52.6078 49.8105 52.7485 49.7468 52.919 49.7468H55.9274C56.0979 49.7468 56.2386 49.8097 56.3469 49.9355C56.4551 50.0613 56.5097 50.2223 56.5097 50.42V67.9043C56.5097 68.102 56.4551 68.2629 56.3469 68.3887C56.2378 68.5145 56.0979 68.5766 55.9274 68.5766H52.919C52.7476 68.5766 52.6078 68.5137 52.4995 68.3887C52.3904 68.2637 52.3367 68.102 52.3367 67.9043V61.2069H46.5763V67.9043C46.5763 68.102 46.5218 68.2629 46.4135 68.3887C46.3044 68.5145 46.1646 68.5766 45.9941 68.5766H42.9856Z" fill="#532A9F"/>
<path d="M60.3603 68.5766C60.189 68.5766 60.0492 68.5137 59.9409 68.3887C59.8318 68.2637 59.7781 68.102 59.7781 67.9043V50.42C59.7781 50.2231 59.8326 50.0613 59.9409 49.9355C60.0492 49.8105 60.1898 49.7468 60.3603 49.7468H71.2511C71.4224 49.7468 71.5622 49.8097 71.6705 49.9355C71.7788 50.0613 71.8333 50.2223 71.8333 50.42V52.9484C71.8333 53.1461 71.7788 53.3071 71.6705 53.4329C71.5614 53.5587 71.4216 53.6208 71.2511 53.6208H63.8113V57.2521H70.7379C70.9092 57.2521 71.049 57.3191 71.1573 57.4539C71.2656 57.5887 71.3201 57.7545 71.3201 57.9514V60.292C71.3201 60.4709 71.2656 60.6277 71.1573 60.7625C71.0482 60.8973 70.9084 60.9643 70.7379 60.9643H63.8113V64.7035H71.4378C71.6091 64.7035 71.7489 64.7664 71.8572 64.8914C71.9655 65.0172 72.02 65.1789 72.02 65.3758V67.9043C72.02 68.102 71.9655 68.2629 71.8572 68.3887C71.7481 68.5145 71.6083 68.5766 71.4378 68.5766H60.3603Z" fill="#532A9F"/>
<path d="M44.6564 89.5035C43.2259 89.5035 41.9821 89.2347 40.925 88.6963C39.867 88.1579 39.0435 87.3475 38.4527 86.2618C37.862 85.1769 37.5354 83.8192 37.4732 82.1869C37.4579 81.4157 37.4502 80.6445 37.4502 79.8733C37.4502 79.1021 37.4579 78.3228 37.4732 77.5328C37.5354 75.9185 37.8654 74.5607 38.4647 73.4579C39.0631 72.355 39.8909 71.5258 40.9489 70.9694C42.006 70.4139 43.2421 70.1353 44.6573 70.1353C46.0562 70.1353 47.2881 70.4139 48.3537 70.9694C49.4185 71.5258 50.2539 72.355 50.8609 73.4579C51.467 74.5607 51.7936 75.9193 51.8404 77.5328C51.8711 78.3219 51.8873 79.1021 51.8873 79.8733C51.8873 80.6445 51.872 81.4157 51.8404 82.1869C51.7782 83.8192 51.4517 85.1769 50.8609 86.2618C50.2701 87.3467 49.4458 88.1579 48.3887 88.6963C47.3298 89.2347 46.086 89.5035 44.6564 89.5035ZM44.6564 85.6295C45.4799 85.6295 46.1525 85.3428 46.6734 84.7685C47.1943 84.195 47.4697 83.28 47.5012 82.0251C47.5319 81.236 47.5481 80.4917 47.5481 79.7924C47.5481 79.0931 47.5327 78.3669 47.5012 77.6136C47.4697 76.7706 47.3341 76.0851 47.0929 75.5558C46.8516 75.0272 46.5217 74.6367 46.1014 74.3859C45.682 74.1351 45.1994 74.0093 44.6555 74.0093C44.127 74.0093 43.653 74.1351 43.2327 74.3859C42.8133 74.6375 42.4783 75.0272 42.2302 75.5558C41.9812 76.0851 41.8414 76.7706 41.8107 77.6136C41.7954 78.3669 41.7877 79.0931 41.7877 79.7924C41.7877 80.4917 41.7954 81.236 41.8107 82.0251C41.8576 83.2808 42.1373 84.195 42.6505 84.7685C43.1637 85.3436 43.832 85.6295 44.6564 85.6295Z" fill="#532A9F"/>
<path d="M63.8957 89.2348C63.7243 89.2348 63.5845 89.1719 63.4763 89.0469C63.3671 88.9219 63.3134 88.7601 63.3134 88.5624V82.7792C63.0645 83.0121 62.7533 83.2098 62.3808 83.3707C62.0074 83.5325 61.6067 83.6493 61.1796 83.7204C60.7517 83.7923 60.3203 83.8282 59.8855 83.8282C57.9111 83.8282 56.4414 83.2678 55.4781 82.1469C54.5139 81.0261 54.0322 79.3089 54.0322 76.9953V71.0773C54.0322 70.8804 54.091 70.7187 54.207 70.5929C54.3238 70.4679 54.4593 70.4042 54.6153 70.4042H57.6468C57.8173 70.4042 57.958 70.4671 58.0663 70.5929C58.1745 70.7187 58.2291 70.8796 58.2291 71.0773V76.7796C58.2291 77.6766 58.4235 78.3359 58.8122 78.7566C59.201 79.1782 59.8455 79.3889 60.7474 79.3889C60.9963 79.3889 61.2683 79.362 61.5641 79.3081C61.8591 79.2541 62.1387 79.1651 62.4038 79.0393C62.6681 78.9143 62.8855 78.7435 63.0568 78.5279C63.2282 78.313 63.3134 78.0532 63.3134 77.7477V71.0765C63.3134 70.8796 63.368 70.7179 63.4763 70.5921C63.5845 70.4671 63.7252 70.4034 63.8957 70.4034H66.9042C67.0747 70.4034 67.2154 70.4663 67.3236 70.5921C67.4319 70.7179 67.4865 70.8788 67.4865 71.0765V88.5608C67.4865 88.7585 67.4319 88.9194 67.3236 89.0452C67.2145 89.171 67.0747 89.2331 66.9042 89.2331H63.8957V89.2348Z" fill="#532A9F"/>
<path d="M71.4753 89.2347C71.304 89.2347 71.1642 89.1718 71.0559 89.0468C70.9468 88.9218 70.8931 88.7601 70.8931 88.5624V71.0781C70.8931 70.8812 70.9476 70.7195 71.0559 70.5937C71.1642 70.4687 71.3048 70.405 71.4753 70.405H82.3661C82.5374 70.405 82.6772 70.4679 82.7855 70.5937C82.8938 70.7195 82.9483 70.8804 82.9483 71.0781V73.6066C82.9483 73.8043 82.8938 73.9652 82.7855 74.091C82.6764 74.2168 82.5366 74.2789 82.3661 74.2789H74.9263V77.9102H81.8529C82.0234 77.9102 82.164 77.9772 82.2723 78.112C82.3805 78.2468 82.4351 78.4127 82.4351 78.6095V80.9501C82.4351 81.129 82.3805 81.2858 82.2723 81.4206C82.1632 81.5554 82.0234 81.6224 81.8529 81.6224H74.9263V85.3616H82.5528C82.7233 85.3616 82.8639 85.4245 82.9722 85.5495C83.0805 85.6753 83.135 85.8371 83.135 86.0339V88.5624C83.135 88.7601 83.0805 88.921 82.9722 89.0468C82.8631 89.1726 82.7233 89.2347 82.5528 89.2347H71.4753Z" fill="#532A9F"/>
<path d="M86.3779 89.2347C86.2066 89.2347 86.0667 89.1718 85.9585 89.0468C85.8494 88.9218 85.7957 88.7601 85.7957 88.5624V71.0781C85.7957 70.8812 85.8502 70.7195 85.9585 70.5937C86.0667 70.4687 86.2074 70.405 86.3779 70.405H92.9081C94.1988 70.405 95.3215 70.6337 96.278 71.0912C97.2337 71.5487 97.9805 72.2341 98.5167 73.1491C99.0529 74.0641 99.3215 75.22 99.3215 76.6187C99.3215 78.0001 99.0529 79.1381 98.5167 80.0351C97.9805 80.9321 97.2337 81.5955 96.278 82.026C95.3215 82.4565 94.1988 82.6714 92.9081 82.6714H90.1332V88.5624C90.1332 88.7601 90.0744 88.921 89.9584 89.0468C89.8416 89.1726 89.6984 89.2347 89.5271 89.2347H86.3779ZM90.0624 78.9592H92.7913C93.4597 78.9592 93.9925 78.7623 94.3889 78.3677C94.7853 77.9731 94.9839 77.3727 94.9839 76.5655C94.9839 75.8842 94.8126 75.3107 94.4707 74.8442C94.1289 74.3778 93.5688 74.1449 92.7913 74.1449H90.0624V78.9592Z" fill="#532A9F"/>
<path d="M102.142 89.2347C101.971 89.2347 101.831 89.1718 101.723 89.0468C101.614 88.9218 101.56 88.7601 101.56 88.5624V71.0781C101.56 70.8812 101.615 70.7195 101.723 70.5937C101.831 70.4687 101.972 70.405 102.142 70.405H113.033C113.204 70.405 113.344 70.4679 113.453 70.5937C113.561 70.7195 113.615 70.8804 113.615 71.0781V73.6066C113.615 73.8043 113.561 73.9652 113.453 74.091C113.343 74.2168 113.204 74.2789 113.033 74.2789H105.593V77.9102H112.52C112.69 77.9102 112.831 77.9772 112.939 78.112C113.048 78.2468 113.102 78.4127 113.102 78.6095V80.9501C113.102 81.129 113.048 81.2858 112.939 81.4206C112.83 81.5554 112.69 81.6224 112.52 81.6224H105.593V85.3616H113.22C113.39 85.3616 113.531 85.4245 113.639 85.5495C113.747 85.6753 113.802 85.8371 113.802 86.0339V88.5624C113.802 88.7601 113.747 88.921 113.639 89.0468C113.53 89.1726 113.39 89.2347 113.22 89.2347H102.142Z" fill="#532A9F"/>
<path d="M116.088 93C115.932 93 115.797 92.9371 115.68 92.8113C115.563 92.6855 115.505 92.5246 115.505 92.3269V85.6026C115.505 85.4237 115.564 85.266 115.68 85.132C115.797 84.9972 115.932 84.9302 116.088 84.9302H116.508C116.897 84.9302 117.215 84.7244 117.464 84.3118C117.713 83.8992 117.915 83.3208 118.07 82.5766C118.225 81.8324 118.334 80.9452 118.396 79.9134C118.458 78.8824 118.49 77.7575 118.49 76.5377V71.0773C118.49 70.8804 118.548 70.7186 118.665 70.5928C118.782 70.4678 118.917 70.4041 119.073 70.4041H130.034C130.204 70.4041 130.345 70.467 130.453 70.5928C130.562 70.7186 130.617 70.8796 130.617 71.0773V84.9302H131.713C131.884 84.9302 132.028 84.9972 132.145 85.132C132.261 85.2668 132.319 85.4237 132.319 85.6026V92.3269C132.319 92.5058 132.261 92.6634 132.145 92.7974C132.028 92.9322 131.884 92.9992 131.713 92.9992H128.705C128.533 92.9992 128.394 92.9322 128.285 92.7974C128.176 92.6626 128.122 92.5058 128.122 92.3269V89.2339H119.703V92.3269C119.703 92.5058 119.649 92.6634 119.539 92.7974C119.43 92.9322 119.29 92.9992 119.12 92.9992H116.088V93ZM121.476 84.9302H126.444V74.7086H122.549V77.1562C122.549 79.0572 122.456 80.6396 122.269 81.9043C122.082 83.1689 121.818 84.177 121.476 84.9302Z" fill="#532A9F"/>
<path d="M135.283 89.2347C135.111 89.2347 134.972 89.1677 134.863 89.0329C134.754 88.8981 134.7 88.7413 134.7 88.5624V71.0781C134.7 70.8812 134.758 70.7195 134.875 70.5937C134.992 70.4687 135.128 70.405 135.284 70.405H138.292C138.463 70.405 138.603 70.4679 138.711 70.5937C138.82 70.7195 138.874 70.8804 138.874 71.0781V81.9182L145.521 70.9164C145.599 70.7734 145.699 70.6517 145.825 70.5537C145.949 70.4556 146.112 70.4058 146.315 70.4058H149.02C149.175 70.4058 149.312 70.4687 149.428 70.5945C149.545 70.7203 149.603 70.8812 149.603 71.0789V88.5632C149.603 88.7609 149.544 88.9218 149.428 89.0476C149.312 89.1735 149.175 89.2355 149.02 89.2355H146.011C145.84 89.2355 145.697 89.1726 145.58 89.0476C145.463 88.9227 145.405 88.7609 145.405 88.5632V78.1267L138.782 88.7249C138.704 88.8508 138.607 88.9668 138.491 89.0746C138.374 89.1824 138.207 89.2364 137.989 89.2364H135.283V89.2347Z" fill="#532A9F"/>
</svg>
