<svg width="19" height="21" viewBox="0 0 19 21" fill="none" xmlns="http://www.w3.org/2000/svg">
<g filter="url(#filter0_d)">
<circle cx="8.56316" cy="10.6442" r="7.8488" fill="white"/>
</g>
<path d="M5.47487 12.2506C5.36332 12.2506 5.26849 12.2116 5.1904 12.1335C5.11231 12.0554 5.07326 11.9606 5.07326 11.849V10.7446C5.07326 10.6219 5.11231 10.527 5.1904 10.4601C5.26849 10.382 5.36332 10.343 5.47487 10.343H10.6121C10.7348 10.343 10.8297 10.382 10.8966 10.4601C10.9747 10.527 11.0137 10.6219 11.0137 10.7446V11.849C11.0137 11.9606 10.9747 12.0554 10.8966 12.1335C10.8297 12.2116 10.7348 12.2506 10.6121 12.2506H5.47487Z" fill="#3D23B3" fill-opacity="0.6"/>
<defs>
<filter id="filter0_d" x="0.714355" y="2.79541" width="17.3307" height="17.3308" filterUnits="userSpaceOnUse" color-interpolation-filters="sRGB">
<feFlood flood-opacity="0" result="BackgroundImageFix"/>
<feColorMatrix in="SourceAlpha" type="matrix" values="0 0 0 0 0 0 0 0 0 0 0 0 0 0 0 0 0 0 127 0" result="hardAlpha"/>
<feOffset dx="0.816583" dy="0.816583"/>
<feGaussianBlur stdDeviation="0.408291"/>
<feComposite in2="hardAlpha" operator="out"/>
<feColorMatrix type="matrix" values="0 0 0 0 0.239216 0 0 0 0 0.137255 0 0 0 0 0.701961 0 0 0 0.4 0"/>
<feBlend mode="normal" in2="BackgroundImageFix" result="effect1_dropShadow"/>
<feBlend mode="normal" in="SourceGraphic" in2="effect1_dropShadow" result="shape"/>
</filter>
</defs>
</svg>
