<svg width="18" height="21" viewBox="0 0 18 21" fill="none" xmlns="http://www.w3.org/2000/svg">
<g filter="url(#filter0_d)">
<circle cx="7.87248" cy="10.6442" r="7.8488" fill="white"/>
</g>
<path d="M7.15416 15.7647C7.0426 15.7647 6.94778 15.7256 6.86969 15.6475C6.7916 15.5695 6.75255 15.4746 6.75255 15.3631V12.1H3.53969C3.42813 12.1 3.3333 12.061 3.25521 11.9829C3.17712 11.9048 3.13808 11.8044 3.13808 11.6817V10.8115C3.13808 10.6888 3.17712 10.594 3.25521 10.527C3.3333 10.449 3.42813 10.4099 3.53969 10.4099H6.75255V7.23051C6.75255 7.10779 6.7916 7.01297 6.86969 6.94603C6.94778 6.86794 7.0426 6.8289 7.15416 6.8289H8.12471C8.24743 6.8289 8.34225 6.86794 8.40919 6.94603C8.48728 7.01297 8.52632 7.10779 8.52632 7.23051V10.4099H11.7392C11.8619 10.4099 11.9567 10.449 12.0237 10.527C12.1018 10.594 12.1408 10.6888 12.1408 10.8115V11.6817C12.1408 11.8044 12.1018 11.9048 12.0237 11.9829C11.9456 12.061 11.8507 12.1 11.7392 12.1H8.52632V15.3631C8.52632 15.4746 8.48728 15.5695 8.40919 15.6475C8.34225 15.7256 8.24743 15.7647 8.12471 15.7647H7.15416Z" fill="#3D23B3" fill-opacity="0.6"/>
<defs>
<filter id="filter0_d" x="0.0236816" y="2.79541" width="17.3307" height="17.3308" filterUnits="userSpaceOnUse" color-interpolation-filters="sRGB">
<feFlood flood-opacity="0" result="BackgroundImageFix"/>
<feColorMatrix in="SourceAlpha" type="matrix" values="0 0 0 0 0 0 0 0 0 0 0 0 0 0 0 0 0 0 127 0" result="hardAlpha"/>
<feOffset dx="0.816583" dy="0.816583"/>
<feGaussianBlur stdDeviation="0.408291"/>
<feComposite in2="hardAlpha" operator="out"/>
<feColorMatrix type="matrix" values="0 0 0 0 0.239216 0 0 0 0 0.137255 0 0 0 0 0.701961 0 0 0 0.4 0"/>
<feBlend mode="normal" in2="BackgroundImageFix" result="effect1_dropShadow"/>
<feBlend mode="normal" in="SourceGraphic" in2="effect1_dropShadow" result="shape"/>
</filter>
</defs>
</svg>
