<svg width="92" height="18" viewBox="0 0 92 18" fill="none" xmlns="http://www.w3.org/2000/svg">
<path d="M1.1267 13.853C0.997808 13.853 0.888253 13.8144 0.79803 13.737C0.720697 13.6468 0.682031 13.5372 0.682031 13.4084V0.783694C0.682031 0.641916 0.720697 0.532361 0.79803 0.455028C0.888253 0.364805 0.997808 0.319694 1.1267 0.319694H10.658C10.7998 0.319694 10.9094 0.364805 10.9867 0.455028C11.0769 0.532361 11.122 0.641916 11.122 0.783694V13.4084C11.122 13.5372 11.0769 13.6468 10.9867 13.737C10.8965 13.8144 10.7869 13.853 10.658 13.853H9.67203C9.54314 13.853 9.43359 13.8144 9.34336 13.737C9.26603 13.6468 9.22736 13.5372 9.22736 13.4084V2.05969H2.5767V13.4084C2.5767 13.5372 2.53159 13.6468 2.44136 13.737C2.35114 13.8144 2.24159 13.853 2.1127 13.853H1.1267ZM14.6961 17.5264C14.5672 17.5264 14.4577 17.4812 14.3675 17.391C14.2901 17.3137 14.2515 17.2106 14.2515 17.0817V4.24436C14.2515 4.11547 14.2901 4.01236 14.3675 3.93503C14.4577 3.84481 14.5672 3.79969 14.6961 3.79969H15.5855C15.7144 3.79969 15.8175 3.84481 15.8948 3.93503C15.985 4.01236 16.0301 4.11547 16.0301 4.24436V5.09503C16.7519 4.10258 17.8088 3.60636 19.2008 3.60636C20.5541 3.60636 21.5659 4.03169 22.2361 4.88236C22.9192 5.73303 23.2866 6.82858 23.3381 8.16903C23.351 8.31081 23.3575 8.52992 23.3575 8.82636C23.3575 9.12281 23.351 9.34192 23.3381 9.48369C23.2866 10.8112 22.9192 11.9068 22.2361 12.7704C21.553 13.621 20.5412 14.0464 19.2008 14.0464C17.8604 14.0464 16.8164 13.563 16.0688 12.5964V17.0817C16.0688 17.2106 16.0301 17.3137 15.9528 17.391C15.8755 17.4812 15.7724 17.5264 15.6435 17.5264H14.6961ZM18.7948 12.4804C19.7099 12.4804 20.3737 12.1968 20.7861 11.6297C21.2115 11.0626 21.4435 10.315 21.4821 9.38703C21.495 9.25814 21.5015 9.07125 21.5015 8.82636C21.5015 6.39036 20.5992 5.17236 18.7948 5.17236C17.9055 5.17236 17.2352 5.46881 16.7841 6.06169C16.3459 6.64169 16.1075 7.33769 16.0688 8.14969L16.0495 8.88436L16.0688 9.63836C16.0946 10.3988 16.3395 11.0626 16.8035 11.6297C17.2675 12.1968 17.9312 12.4804 18.7948 12.4804ZM29.8671 14.0464C28.4493 14.0464 27.3473 13.6468 26.5611 12.8477C25.7877 12.0486 25.3753 10.9852 25.3237 9.65769L25.3044 8.82636L25.3237 7.99503C25.3753 6.68036 25.7942 5.62347 26.5804 4.82436C27.3666 4.01236 28.4622 3.60636 29.8671 3.60636C31.2719 3.60636 32.3675 4.01236 33.1537 4.82436C33.9399 5.62347 34.3588 6.68036 34.4104 7.99503C34.4233 8.13681 34.4297 8.41392 34.4297 8.82636C34.4297 9.23881 34.4233 9.51592 34.4104 9.65769C34.3588 10.9852 33.9399 12.0486 33.1537 12.8477C32.3804 13.6468 31.2848 14.0464 29.8671 14.0464ZM29.8671 12.5577C30.6791 12.5577 31.3171 12.2999 31.7811 11.7844C32.2579 11.2688 32.5157 10.5277 32.5544 9.56103C32.5673 9.43214 32.5737 9.18725 32.5737 8.82636C32.5737 8.46547 32.5673 8.22058 32.5544 8.09169C32.5157 7.12503 32.2579 6.38392 31.7811 5.86836C31.3171 5.35281 30.6791 5.09503 29.8671 5.09503C29.0551 5.09503 28.4106 5.35281 27.9337 5.86836C27.4568 6.38392 27.2055 7.12503 27.1797 8.09169L27.1604 8.82636L27.1797 9.56103C27.2055 10.5277 27.4568 11.2688 27.9337 11.7844C28.4106 12.2999 29.0551 12.5577 29.8671 12.5577ZM46.7493 3.79969C46.8524 3.79969 46.9426 3.83836 47.02 3.91569C47.0973 3.98014 47.136 4.06392 47.136 4.16703V13.4277C47.136 13.5566 47.0973 13.6597 47.02 13.737C46.9426 13.8144 46.846 13.853 46.73 13.853H45.7826C45.6537 13.853 45.5506 13.8144 45.4733 13.737C45.396 13.6597 45.3573 13.5566 45.3573 13.4277V7.06703L42.8826 11.7457C42.7924 11.9132 42.7022 12.0421 42.612 12.1324C42.5346 12.2097 42.4122 12.2484 42.2446 12.2484H41.742C41.5873 12.2484 41.4648 12.2097 41.3746 12.1324C41.2973 12.055 41.2071 11.9261 41.104 11.7457L38.6486 7.18303V13.4277C38.6486 13.5566 38.61 13.6597 38.5326 13.737C38.4553 13.8144 38.3522 13.853 38.2233 13.853H37.276C37.1471 13.853 37.044 13.8144 36.9666 13.737C36.8893 13.6597 36.8506 13.5566 36.8506 13.4277V4.16703C36.8506 4.07681 36.8893 3.99303 36.9666 3.91569C37.044 3.83836 37.1342 3.79969 37.2373 3.79969H38.2233C38.4166 3.79969 38.5777 3.90281 38.7066 4.10903L41.9933 10.257L45.2993 4.10903C45.4024 3.90281 45.5635 3.79969 45.7826 3.79969H46.7493ZM54.147 14.0464C52.7292 14.0464 51.6272 13.6468 50.841 12.8477C50.0677 12.0486 49.6552 10.9852 49.6037 9.65769L49.5843 8.82636L49.6037 7.99503C49.6552 6.68036 50.0741 5.62347 50.8603 4.82436C51.6466 4.01236 52.7421 3.60636 54.147 3.60636C55.5519 3.60636 56.6474 4.01236 57.4337 4.82436C58.2199 5.62347 58.6388 6.68036 58.6903 7.99503C58.7032 8.13681 58.7097 8.41392 58.7097 8.82636C58.7097 9.23881 58.7032 9.51592 58.6903 9.65769C58.6388 10.9852 58.2199 12.0486 57.4337 12.8477C56.6603 13.6468 55.5648 14.0464 54.147 14.0464ZM54.147 12.5577C54.959 12.5577 55.597 12.2999 56.061 11.7844C56.5379 11.2688 56.7957 10.5277 56.8343 9.56103C56.8472 9.43214 56.8537 9.18725 56.8537 8.82636C56.8537 8.46547 56.8472 8.22058 56.8343 8.09169C56.7957 7.12503 56.5379 6.38392 56.061 5.86836C55.597 5.35281 54.959 5.09503 54.147 5.09503C53.335 5.09503 52.6906 5.35281 52.2137 5.86836C51.7368 6.38392 51.4854 7.12503 51.4597 8.09169L51.4403 8.82636L51.4597 9.56103C51.4854 10.5277 51.7368 11.2688 52.2137 11.7844C52.6906 12.2999 53.335 12.5577 54.147 12.5577ZM69.5212 13.2924C69.5857 13.3697 69.6179 13.4535 69.6179 13.5437C69.6179 13.6339 69.5792 13.7112 69.5019 13.7757C69.4375 13.8272 69.3472 13.853 69.2312 13.853H68.0519C67.8457 13.853 67.6781 13.7564 67.5492 13.563L64.7459 9.52236H62.9286V13.4084C62.9286 13.5372 62.8835 13.6468 62.7932 13.737C62.7159 13.8144 62.6128 13.853 62.4839 13.853H61.5752C61.4463 13.853 61.3368 13.8144 61.2466 13.737C61.1692 13.6468 61.1306 13.5372 61.1306 13.4084V4.24436C61.1306 4.11547 61.1692 4.01236 61.2466 3.93503C61.3368 3.84481 61.4463 3.79969 61.5752 3.79969H62.4839C62.6128 3.79969 62.7159 3.84481 62.7932 3.93503C62.8835 4.01236 62.9286 4.11547 62.9286 4.24436V7.95636H64.7072L67.2979 4.08969C67.4526 3.89636 67.6266 3.79969 67.8199 3.79969H68.8252C68.9412 3.79969 69.0379 3.83192 69.1152 3.89636C69.1926 3.94792 69.2312 4.01881 69.2312 4.10903C69.2312 4.17347 69.199 4.25081 69.1346 4.34103L66.2539 8.61369L69.5212 13.2924ZM75.1418 14.0464C73.724 14.0464 72.622 13.6468 71.8358 12.8477C71.0625 12.0486 70.65 10.9852 70.5985 9.65769L70.5791 8.82636L70.5985 7.99503C70.65 6.68036 71.0689 5.62347 71.8551 4.82436C72.6413 4.01236 73.7369 3.60636 75.1418 3.60636C76.5467 3.60636 77.6422 4.01236 78.4285 4.82436C79.2147 5.62347 79.6336 6.68036 79.6851 7.99503C79.698 8.13681 79.7045 8.41392 79.7045 8.82636C79.7045 9.23881 79.698 9.51592 79.6851 9.65769C79.6336 10.9852 79.2147 12.0486 78.4285 12.8477C77.6551 13.6468 76.5596 14.0464 75.1418 14.0464ZM75.1418 12.5577C75.9538 12.5577 76.5918 12.2999 77.0558 11.7844C77.5327 11.2688 77.7905 10.5277 77.8291 9.56103C77.842 9.43214 77.8485 9.18725 77.8485 8.82636C77.8485 8.46547 77.842 8.22058 77.8291 8.09169C77.7905 7.12503 77.5327 6.38392 77.0558 5.86836C76.5918 5.35281 75.9538 5.09503 75.1418 5.09503C74.3298 5.09503 73.6853 5.35281 73.2085 5.86836C72.7316 6.38392 72.4802 7.12503 72.4545 8.09169L72.4351 8.82636L72.4545 9.56103C72.4802 10.5277 72.7316 11.2688 73.2085 11.7844C73.6853 12.2999 74.3298 12.5577 75.1418 12.5577ZM81.5454 15.9797C81.4165 15.9797 81.3069 15.9346 81.2167 15.8444C81.1394 15.767 81.1007 15.6639 81.1007 15.535V12.751C81.1007 12.6221 81.1394 12.519 81.2167 12.4417C81.3069 12.3515 81.4165 12.3064 81.5454 12.3064H81.642C82.1834 12.2935 82.5894 11.8424 82.86 10.953C83.1436 10.0637 83.2854 8.65236 83.2854 6.71903V4.24436C83.2854 4.11547 83.324 4.01236 83.4014 3.93503C83.4916 3.84481 83.6011 3.79969 83.73 3.79969H89.8974C90.0262 3.79969 90.1294 3.84481 90.2067 3.93503C90.2969 4.01236 90.342 4.11547 90.342 4.24436V12.2677H91.2507C91.3796 12.2677 91.4827 12.3128 91.56 12.403C91.6502 12.4804 91.6954 12.5835 91.6954 12.7124V15.535C91.6954 15.6639 91.6502 15.767 91.56 15.8444C91.4827 15.9346 91.3796 15.9797 91.2507 15.9797H90.342C90.2131 15.9797 90.1036 15.9346 90.0134 15.8444C89.936 15.767 89.8974 15.6639 89.8974 15.535V13.853H82.8987V15.535C82.8987 15.6639 82.8536 15.767 82.7634 15.8444C82.686 15.9346 82.5829 15.9797 82.454 15.9797H81.5454ZM88.544 12.2677V5.34636H85.0447V6.93169C85.0447 9.50947 84.6774 11.301 83.9427 12.3064L88.544 12.2677Z" fill="black"/>
</svg>
