<svg width="58" height="18" viewBox="0 0 58 18" fill="none" xmlns="http://www.w3.org/2000/svg">
<path d="M5.278 14.18C4.21 14.18 3.292 14.018 2.524 13.694C1.756 13.37 1.174 12.944 0.778 12.416C0.382 11.888 0.172 11.318 0.148 10.706C0.148 10.598 0.184 10.508 0.256 10.436C0.328 10.364 0.418 10.328 0.526 10.328H2.128C2.272 10.328 2.38 10.358 2.452 10.418C2.536 10.466 2.614 10.55 2.686 10.67C2.806 11.078 3.082 11.42 3.514 11.696C3.946 11.972 4.534 12.11 5.278 12.11C6.13 12.11 6.772 11.972 7.204 11.696C7.636 11.408 7.852 11.012 7.852 10.508C7.852 10.172 7.738 9.896 7.51 9.68C7.294 9.464 6.964 9.278 6.52 9.122C6.088 8.966 5.44 8.774 4.576 8.546C3.16 8.21 2.122 7.766 1.462 7.214C0.814 6.65 0.49 5.852 0.49 4.82C0.49 4.124 0.676 3.506 1.048 2.966C1.432 2.426 1.978 2 2.686 1.688C3.406 1.376 4.24 1.22 5.188 1.22C6.172 1.22 7.024 1.394 7.744 1.742C8.464 2.09 9.01 2.528 9.382 3.056C9.766 3.572 9.97 4.088 9.994 4.604C9.994 4.712 9.958 4.802 9.886 4.874C9.814 4.946 9.724 4.982 9.616 4.982H7.942C7.69 4.982 7.516 4.868 7.42 4.64C7.348 4.256 7.108 3.938 6.7 3.686C6.292 3.422 5.788 3.29 5.188 3.29C4.516 3.29 3.988 3.416 3.604 3.668C3.22 3.92 3.028 4.286 3.028 4.766C3.028 5.102 3.124 5.378 3.316 5.594C3.508 5.81 3.808 6.002 4.216 6.17C4.636 6.338 5.236 6.524 6.016 6.728C7.072 6.968 7.912 7.238 8.536 7.538C9.172 7.838 9.64 8.216 9.94 8.672C10.24 9.128 10.39 9.71 10.39 10.418C10.39 11.186 10.174 11.858 9.742 12.434C9.322 12.998 8.722 13.43 7.942 13.73C7.174 14.03 6.286 14.18 5.278 14.18ZM12.5968 3.092C12.4768 3.092 12.3748 3.05 12.2908 2.966C12.2068 2.882 12.1648 2.78 12.1648 2.66V1.364C12.1648 1.244 12.2068 1.142 12.2908 1.058C12.3748 0.974 12.4768 0.932 12.5968 0.932H14.2348C14.3548 0.932 14.4568 0.974 14.5408 1.058C14.6368 1.142 14.6848 1.244 14.6848 1.364V2.66C14.6848 2.78 14.6428 2.882 14.5588 2.966C14.4748 3.05 14.3668 3.092 14.2348 3.092H12.5968ZM12.6688 14C12.5488 14 12.4468 13.958 12.3628 13.874C12.2788 13.79 12.2368 13.688 12.2368 13.568V5.072C12.2368 4.952 12.2788 4.85 12.3628 4.766C12.4468 4.682 12.5488 4.64 12.6688 4.64H14.1628C14.2948 4.64 14.3968 4.682 14.4688 4.766C14.5528 4.838 14.5948 4.94 14.5948 5.072V13.568C14.5948 13.688 14.5528 13.79 14.4688 13.874C14.3968 13.958 14.2948 14 14.1628 14H12.6688ZM21.2129 17.96C20.1449 17.96 19.2809 17.78 18.6209 17.42C17.9609 17.072 17.4929 16.67 17.2169 16.214C16.9409 15.758 16.8029 15.368 16.8029 15.044C16.8029 14.936 16.8449 14.84 16.9289 14.756C17.0249 14.672 17.1269 14.63 17.2349 14.63H18.8009C18.9089 14.63 18.9989 14.654 19.0709 14.702C19.1549 14.762 19.2209 14.864 19.2689 15.008C19.3889 15.332 19.5809 15.602 19.8449 15.818C20.1209 16.046 20.5469 16.16 21.1229 16.16C21.8429 16.16 22.3709 15.998 22.7069 15.674C23.0549 15.35 23.2289 14.792 23.2289 14V12.776C22.5689 13.556 21.6449 13.946 20.4569 13.946C19.2089 13.946 18.2669 13.562 17.6309 12.794C17.0069 12.026 16.6709 10.994 16.6229 9.698L16.6049 9.212L16.6229 8.726C16.6709 7.454 17.0129 6.428 17.6489 5.648C18.2849 4.856 19.2209 4.46 20.4569 4.46C21.0929 4.46 21.6509 4.58 22.1309 4.82C22.6109 5.06 23.0129 5.39 23.3369 5.81V5.09C23.3369 4.958 23.3789 4.85 23.4629 4.766C23.5469 4.682 23.6489 4.64 23.7689 4.64H25.2269C25.3469 4.64 25.4489 4.688 25.5329 4.784C25.6169 4.868 25.6589 4.97 25.6589 5.09L25.6769 13.766C25.6769 15.098 25.3049 16.13 24.5609 16.862C23.8169 17.594 22.7009 17.96 21.2129 17.96ZM21.1229 12.038C21.8069 12.038 22.3169 11.822 22.6529 11.39C23.0009 10.958 23.1929 10.43 23.2289 9.806C23.2409 9.71 23.2469 9.512 23.2469 9.212C23.2469 8.924 23.2409 8.732 23.2289 8.636C23.1929 8 23.0009 7.466 22.6529 7.034C22.3169 6.602 21.8069 6.386 21.1229 6.386C19.8269 6.386 19.1429 7.184 19.0709 8.78L19.0529 9.212C19.0529 10.064 19.2029 10.748 19.5029 11.264C19.8149 11.78 20.3549 12.038 21.1229 12.038ZM28.5067 14C28.3867 14 28.2847 13.958 28.2007 13.874C28.1167 13.79 28.0747 13.688 28.0747 13.568V5.072C28.0747 4.952 28.1167 4.85 28.2007 4.766C28.2847 4.682 28.3867 4.64 28.5067 4.64H29.9827C30.1027 4.64 30.2047 4.682 30.2887 4.766C30.3727 4.85 30.4147 4.952 30.4147 5.072V5.81C31.1227 4.91 32.1247 4.46 33.4207 4.46C34.5247 4.46 35.4007 4.826 36.0487 5.558C36.6967 6.278 37.0207 7.262 37.0207 8.51V13.568C37.0207 13.688 36.9787 13.79 36.8947 13.874C36.8227 13.958 36.7207 14 36.5887 14H35.0047C34.8847 14 34.7827 13.958 34.6987 13.874C34.6147 13.79 34.5727 13.688 34.5727 13.568V8.618C34.5727 7.91 34.3987 7.364 34.0507 6.98C33.7147 6.584 33.2227 6.386 32.5747 6.386C31.9387 6.386 31.4347 6.584 31.0627 6.98C30.7027 7.376 30.5227 7.922 30.5227 8.618V13.568C30.5227 13.688 30.4807 13.79 30.3967 13.874C30.3247 13.958 30.2227 14 30.0907 14H28.5067ZM43.7804 3.092C43.6604 3.092 43.5584 3.05 43.4744 2.966C43.3904 2.882 43.3484 2.78 43.3484 2.66V1.364C43.3484 1.244 43.3904 1.142 43.4744 1.058C43.5584 0.974 43.6604 0.932 43.7804 0.932H45.4184C45.5384 0.932 45.6404 0.974 45.7244 1.058C45.8204 1.142 45.8684 1.244 45.8684 1.364V2.66C45.8684 2.78 45.8264 2.882 45.7424 2.966C45.6584 3.05 45.5504 3.092 45.4184 3.092H43.7804ZM43.8524 14C43.7324 14 43.6304 13.958 43.5464 13.874C43.4624 13.79 43.4204 13.688 43.4204 13.568V5.072C43.4204 4.952 43.4624 4.85 43.5464 4.766C43.6304 4.682 43.7324 4.64 43.8524 4.64H45.3464C45.4784 4.64 45.5804 4.682 45.6524 4.766C45.7364 4.838 45.7784 4.94 45.7784 5.072V13.568C45.7784 13.688 45.7364 13.79 45.6524 13.874C45.5804 13.958 45.4784 14 45.3464 14H43.8524ZM48.5985 14C48.4785 14 48.3765 13.958 48.2925 13.874C48.2085 13.79 48.1665 13.688 48.1665 13.568V5.072C48.1665 4.952 48.2085 4.85 48.2925 4.766C48.3765 4.682 48.4785 4.64 48.5985 4.64H50.0745C50.1945 4.64 50.2965 4.682 50.3805 4.766C50.4645 4.85 50.5065 4.952 50.5065 5.072V5.81C51.2145 4.91 52.2165 4.46 53.5125 4.46C54.6165 4.46 55.4925 4.826 56.1405 5.558C56.7885 6.278 57.1125 7.262 57.1125 8.51V13.568C57.1125 13.688 57.0705 13.79 56.9865 13.874C56.9145 13.958 56.8125 14 56.6805 14H55.0965C54.9765 14 54.8745 13.958 54.7905 13.874C54.7065 13.79 54.6645 13.688 54.6645 13.568V8.618C54.6645 7.91 54.4905 7.364 54.1425 6.98C53.8065 6.584 53.3145 6.386 52.6665 6.386C52.0305 6.386 51.5265 6.584 51.1545 6.98C50.7945 7.376 50.6145 7.922 50.6145 8.618V13.568C50.6145 13.688 50.5725 13.79 50.4885 13.874C50.4165 13.958 50.3145 14 50.1825 14H48.5985Z" fill="#3D23B3"/>
</svg>
